<svg width="19" height="24" viewBox="0 0 19 24" fill="none" xmlns="http://www.w3.org/2000/svg">
<path d="M13.772 5.49162C13.182 5.49162 12.6332 5.5797 12.1258 5.75586C11.6183 5.93202 11.1561 6.10627 10.7391 6.27859C10.3221 6.45093 9.96022 6.5371 9.65339 6.5371C9.33082 6.5371 8.97285 6.45476 8.57948 6.29009C8.18611 6.12542 7.76323 5.96266 7.31084 5.80182C6.85847 5.64097 6.37659 5.56055 5.86521 5.56055C4.8975 5.56055 3.9652 5.81713 3.06831 6.3303C2.17142 6.84347 1.43581 7.60172 0.861489 8.60507C0.287163 9.60842 0 10.8454 0 12.316C0 13.235 0.110145 14.1541 0.330434 15.0732C0.550723 15.9924 0.845754 16.8617 1.21553 17.6812C1.58529 18.5007 1.9944 19.2245 2.44285 19.8526C3.02504 20.6415 3.59347 21.3193 4.14813 21.886C4.70278 22.4529 5.34595 22.7363 6.07763 22.7363C6.55754 22.7363 6.97451 22.6597 7.32855 22.5065C7.68259 22.3532 8.05826 22.1982 8.45557 22.0412C8.85287 21.8842 9.35049 21.8057 9.94842 21.8057C10.4047 21.8057 10.7863 21.8516 11.0931 21.9435C11.4 22.0354 11.6812 22.1407 11.9369 22.2594C12.1926 22.3782 12.4621 22.4835 12.7453 22.5754C13.0285 22.6673 13.3707 22.7132 13.772 22.7132C14.2992 22.7132 14.7731 22.5773 15.194 22.3054C15.6149 22.0335 16.0044 21.6831 16.3623 21.2542C16.7204 20.8252 17.0685 20.3772 17.4068 19.91C17.7766 19.3815 18.0775 18.8741 18.3096 18.3878C18.5417 17.9014 18.7128 17.5031 18.823 17.193C18.9331 16.8828 18.9921 16.7123 19 16.6817C18.9764 16.674 18.8053 16.5878 18.4867 16.4232C18.1679 16.2585 17.806 15.9962 17.4009 15.6362C16.9957 15.2762 16.6417 14.8051 16.3388 14.223C16.0358 13.641 15.8844 12.9287 15.8844 12.0861C15.8844 11.3509 16.0044 10.7171 16.2444 10.1848C16.4843 9.65247 16.7655 9.21206 17.0881 8.86357C17.4107 8.51507 17.6998 8.24892 17.9555 8.0651C18.2113 7.88128 18.3588 7.77788 18.3981 7.75491C18.0047 7.20344 17.5759 6.77453 17.1118 6.46817C16.6476 6.1618 16.1913 5.93968 15.7428 5.80182C15.2943 5.66395 14.8951 5.57778 14.545 5.54331C14.1949 5.50885 13.9373 5.49162 13.772 5.49162ZM12.9459 3.63045C13.3078 3.20919 13.6028 2.72092 13.831 2.16563C14.0592 1.61034 14.1732 1.03781 14.1732 0.448061C14.1732 0.27956 14.1614 0.130206 14.1378 0C13.5478 0.0229775 12.9322 0.195309 12.291 0.516993C11.6498 0.838678 11.1207 1.24078 10.7037 1.72331C10.3654 2.09095 10.0664 2.5505 9.8068 3.10196C9.54718 3.65342 9.41737 4.2202 9.41737 4.80229C9.41737 4.89421 9.42327 4.97846 9.43507 5.05505C9.44687 5.13164 9.45671 5.18525 9.46457 5.21589C9.56684 5.23887 9.67305 5.25036 9.7832 5.25036C10.3103 5.25036 10.8709 5.09717 11.4649 4.79081C12.0589 4.48444 12.5526 4.09765 12.9459 3.63045Z" fill="white"/>
</svg>
