<svg width="10" height="17" viewBox="0 0 10 17" fill="none" xmlns="http://www.w3.org/2000/svg">
<path d="M3.12779 1.01102C2.58159 0.388154 1.63388 0.326009 1.01102 0.872211C0.388154 1.41841 0.326009 2.36612 0.872211 2.98898L3.12779 1.01102ZM8 8.84211L9.07434 9.8889C9.62065 9.32822 9.64393 8.4417 9.12779 7.85312L8 8.84211ZM0.925656 13.9532C0.347526 14.5465 0.359859 15.4962 0.953203 16.0743C1.54655 16.6525 2.49621 16.6401 3.07434 16.0468L0.925656 13.9532ZM0.872211 2.98898L6.87221 9.83109L9.12779 7.85312L3.12779 1.01102L0.872211 2.98898ZM6.92566 7.79531L0.925656 13.9532L3.07434 16.0468L9.07434 9.8889L6.92566 7.79531Z" fill="white"/>
</svg>
