<?xml version="1.0" encoding="UTF-8" standalone="no"?>
<svg
   xmlns:dc="http://purl.org/dc/elements/1.1/"
   xmlns:cc="http://creativecommons.org/ns#"
   xmlns:rdf="http://www.w3.org/1999/02/22-rdf-syntax-ns#"
   xmlns:svg="http://www.w3.org/2000/svg"
   xmlns="http://www.w3.org/2000/svg"
   xmlns:sodipodi="http://sodipodi.sourceforge.net/DTD/sodipodi-0.dtd"
   xmlns:inkscape="http://www.inkscape.org/namespaces/inkscape"
   width="23.375"
   height="17"
   viewBox="0 0 23.375 17"
   version="1.1"
   id="svg8"
   sodipodi:docname="canalsIconDefault.svg"
   style="fill:none"
   inkscape:version="0.92.5 (2060ec1f9f, 2020-04-08)">
  <metadata
     id="metadata14">
    <rdf:RDF>
      <cc:Work
         rdf:about="">
        <dc:format>image/svg+xml</dc:format>
        <dc:type
           rdf:resource="http://purl.org/dc/dcmitype/StillImage" />
      </cc:Work>
    </rdf:RDF>
  </metadata>
  <defs
     id="defs12" />
  <sodipodi:namedview
     pagecolor="#ffffff"
     bordercolor="#666666"
     borderopacity="1"
     objecttolerance="10"
     gridtolerance="10"
     guidetolerance="10"
     inkscape:pageopacity="0"
     inkscape:pageshadow="2"
     inkscape:window-width="1273"
     inkscape:window-height="672"
     id="namedview10"
     showgrid="false"
     inkscape:zoom="13.882353"
     inkscape:cx="10.541687"
     inkscape:cy="7.6666997"
     inkscape:window-x="62"
     inkscape:window-y="206"
     inkscape:window-maximized="0"
     inkscape:current-layer="svg8" />
  <path
     d="M 0,17 V 14.025036 C 0,13.422903 0.15512497,12.869331 0.46537049,12.36432 0.77491753,11.859974 1.1864532,11.475034 1.6999997,11.209391 2.797905,10.660475 3.9135271,10.248484 5.0468662,9.9736934 6.1801942,9.6995682 7.331228,9.5625001 8.4999787,9.5625001 c 1.1687508,0 2.3197403,0.1370681 3.4531573,0.4111933 1.133305,0.2747906 2.248872,0.6867816 3.346811,1.2356976 0.513546,0.265643 0.925093,0.650583 1.23464,1.154929 0.310212,0.505011 0.465318,1.058583 0.465318,1.660716 V 17 Z M 8.4999787,8.5000033 c -1.1687507,0 -2.1692684,-0.4161491 -3.001553,-1.2484362 C 4.66613,6.4192689 4.2499932,5.4187482 4.2499932,4.250005 4.2499932,3.0812507 4.66613,2.08073 5.4984257,1.2484429 6.3307103,0.4161447 7.331228,0 8.4999787,0 c 1.1687508,0 2.1692903,0.4161447 3.0015863,1.2484429 0.832296,0.8322871 1.248388,1.8328078 1.248388,3.0015621 0,1.1687432 -0.416092,2.1692639 -1.248388,3.0015621 C 10.669269,8.0838542 9.6687295,8.5000033 8.4999787,8.5000033 Z M 19.124937,4.250005 c 0,1.1687432 -0.416093,2.1692639 -1.248388,3.0015621 -0.832296,0.8322871 -1.832891,1.2484362 -3.001564,1.2484362 -0.194798,0 -0.442701,-0.021952 -0.743822,-0.065879 -0.30101,-0.044625 -0.548914,-0.093496 -0.743711,-0.1466251 0.478179,-0.5666657 0.845378,-1.1953075 1.101818,-1.8859365 0.257106,-0.690618 0.385715,-1.4078114 0.385715,-2.151558 0,-0.7437578 -0.128609,-1.4609401 -0.385715,-2.1515691 C 14.23283,1.4078177 13.865631,0.77916477 13.387452,0.2124991 13.635355,0.1239571 13.883259,0.0662288 14.131163,0.039313 14.379177,0.013105 14.627081,0 14.874985,0 c 1.168673,0 2.169268,0.4161447 3.001564,1.2484429 0.832295,0.8322871 1.248388,1.8328078 1.248388,3.0015621 z m 0,12.749995 v -3.187502 c 0,-0.779191 -0.21675,-1.527561 -0.650248,-2.245109 -0.434165,-0.716772 -1.049711,-1.331988 -1.846639,-1.8455138 0.903141,0.1062575 1.753176,0.2875848 2.549993,0.5440148 0.796929,0.257107 1.54064,0.571644 2.231245,0.943501 0.637498,0.354117 1.124547,0.748037 1.460924,1.181537 0.336488,0.434166 0.504677,0.908022 0.504677,1.42157 V 17 Z"
     id="path2"
     inkscape:connector-curvature="0"
     style="fill:#7f7d85;stroke-width:1.10869443" />
  <path
     d="m 17.876549,7.2515671 c 0.832295,-0.8322982 1.248388,-1.8328189 1.248388,-3.0015621 0,-1.1687543 -0.416093,-2.169275 -1.248388,-3.0015621 C 17.044253,0.4161447 16.043769,0 14.874985,0 c -0.247904,0 -0.495808,0.013105 -0.743711,0.039313 -0.248015,0.026916 -0.495919,0.084645 -0.743822,0.1731861 0.478179,0.56666567 0.845378,1.1953186 1.101818,1.8859365 0.257106,0.690629 0.385715,1.4078113 0.385715,2.1515691 0,0.7437466 -0.128609,1.46094 -0.385715,2.151558 -0.25644,0.690629 -0.623639,1.3192708 -1.101818,1.8859365 0.194797,0.053129 0.442701,0.1020001 0.743822,0.1466251 0.30101,0.043926 0.548913,0.065879 0.743711,0.065879 1.168784,0 2.169268,-0.4161491 3.001564,-1.2484362 z"
     id="path4"
     inkscape:connector-curvature="0"
     style="fill:#7f7d85;stroke-width:1.10869443" />
  <path
     d="M 19.124937,13.812498 V 17 H 23.375 v -3.187502 c 0,-0.513548 -0.1683,-0.987404 -0.504788,-1.42157 -0.336377,-0.4335 -0.823426,-0.82742 -1.460924,-1.181537 -0.690605,-0.371857 -1.434316,-0.686394 -2.231245,-0.943501 -0.796817,-0.25643 -1.646852,-0.4377573 -2.549993,-0.5440148 0.796928,0.5135258 1.412474,1.1287418 1.846639,1.8455138 0.433498,0.717548 0.650248,1.465918 0.650248,2.245109 z"
     id="path6"
     inkscape:connector-curvature="0"
     style="fill:#7f7d85;stroke-width:1.10869443" />
</svg>
