<svg width="23" height="17" viewBox="0 0 23 17" fill="none" xmlns="http://www.w3.org/2000/svg">
<path d="M0.958313 16.1667V13.4834C0.958313 12.9403 1.09823 12.441 1.37806 11.9855C1.65726 11.5306 2.02845 11.1834 2.49165 10.9438C3.48192 10.4487 4.48817 10.0771 5.5104 9.82925C6.53262 9.582 7.57081 9.45837 8.62498 9.45837C9.67915 9.45837 10.7173 9.582 11.7396 9.82925C12.7618 10.0771 13.768 10.4487 14.7583 10.9438C15.2215 11.1834 15.5927 11.5306 15.8719 11.9855C16.1517 12.441 16.2916 12.9403 16.2916 13.4834V16.1667H0.958313ZM8.62498 8.50004C7.57081 8.50004 6.66838 8.12469 5.91769 7.374C5.16699 6.6233 4.79165 5.72087 4.79165 4.66671C4.79165 3.61254 5.16699 2.71011 5.91769 1.95942C6.66838 1.20872 7.57081 0.833374 8.62498 0.833374C9.67915 0.833374 10.5816 1.20872 11.3323 1.95942C12.083 2.71011 12.4583 3.61254 12.4583 4.66671C12.4583 5.72087 12.083 6.6233 11.3323 7.374C10.5816 8.12469 9.67915 8.50004 8.62498 8.50004ZM18.2083 4.66671C18.2083 5.72087 17.833 6.6233 17.0823 7.374C16.3316 8.12469 15.4291 8.50004 14.375 8.50004C14.1993 8.50004 13.9757 8.48024 13.7041 8.44062C13.4326 8.40037 13.209 8.35629 13.0333 8.30837C13.4646 7.79726 13.7958 7.23025 14.0271 6.60733C14.259 5.98442 14.375 5.33754 14.375 4.66671C14.375 3.99587 14.259 3.349 14.0271 2.72608C13.7958 2.10317 13.4646 1.53615 13.0333 1.02504C13.2569 0.945179 13.4805 0.89311 13.7041 0.868833C13.9278 0.845194 14.1514 0.833374 14.375 0.833374C15.4291 0.833374 16.3316 1.20872 17.0823 1.95942C17.833 2.71011 18.2083 3.61254 18.2083 4.66671ZM18.2083 16.1667V13.2917C18.2083 12.5889 18.0128 11.9139 17.6218 11.2667C17.2302 10.6202 16.675 10.0653 15.9562 9.60212C16.7708 9.69796 17.5375 9.86151 18.2562 10.0928C18.975 10.3247 19.6458 10.6084 20.2687 10.9438C20.8437 11.2632 21.283 11.6185 21.5864 12.0095C21.8899 12.4011 22.0416 12.8285 22.0416 13.2917V16.1667H18.2083Z" fill="#7F7D85"/>
<path d="M17.0823 7.374C17.833 6.6233 18.2083 5.72087 18.2083 4.66671C18.2083 3.61254 17.833 2.71011 17.0823 1.95942C16.3316 1.20872 15.4292 0.833374 14.375 0.833374C14.1514 0.833374 13.9278 0.845194 13.7042 0.868833C13.4805 0.89311 13.2569 0.945179 13.0333 1.02504C13.4646 1.53615 13.7958 2.10317 14.0271 2.72608C14.259 3.349 14.375 3.99587 14.375 4.66671C14.375 5.33754 14.259 5.98442 14.0271 6.60733C13.7958 7.23025 13.4646 7.79726 13.0333 8.30837C13.209 8.35629 13.4326 8.40037 13.7042 8.44062C13.9757 8.48024 14.1993 8.50004 14.375 8.50004C15.4292 8.50004 16.3316 8.12469 17.0823 7.374Z" fill="#7F7D85"/>
<path d="M18.2083 13.2917V16.1667H22.0417V13.2917C22.0417 12.8285 21.8899 12.4011 21.5864 12.0095C21.283 11.6185 20.8437 11.2632 20.2687 10.9438C19.6458 10.6084 18.975 10.3247 18.2562 10.0928C17.5375 9.86151 16.7708 9.69796 15.9562 9.60212C16.675 10.0653 17.2302 10.6202 17.6218 11.2667C18.0128 11.9139 18.2083 12.5889 18.2083 13.2917Z" fill="#7F7D85"/>
</svg>
