<?xml version="1.0" encoding="UTF-8" standalone="no"?>
<svg
   xmlns:dc="http://purl.org/dc/elements/1.1/"
   xmlns:cc="http://creativecommons.org/ns#"
   xmlns:rdf="http://www.w3.org/1999/02/22-rdf-syntax-ns#"
   xmlns:svg="http://www.w3.org/2000/svg"
   xmlns="http://www.w3.org/2000/svg"
   xmlns:sodipodi="http://sodipodi.sourceforge.net/DTD/sodipodi-0.dtd"
   xmlns:inkscape="http://www.inkscape.org/namespaces/inkscape"
   width="23.375"
   height="17"
   viewBox="0 0 23.375 17"
   version="1.1"
   id="svg4"
   sodipodi:docname="canalsIconActive.svg"
   style="fill:none"
   inkscape:version="0.92.5 (2060ec1f9f, 2020-04-08)">
  <metadata
     id="metadata10">
    <rdf:RDF>
      <cc:Work
         rdf:about="">
        <dc:format>image/svg+xml</dc:format>
        <dc:type
           rdf:resource="http://purl.org/dc/dcmitype/StillImage" />
      </cc:Work>
    </rdf:RDF>
  </metadata>
  <defs
     id="defs8" />
  <sodipodi:namedview
     pagecolor="#ffffff"
     bordercolor="#666666"
     borderopacity="1"
     objecttolerance="10"
     gridtolerance="10"
     guidetolerance="10"
     inkscape:pageopacity="0"
     inkscape:pageshadow="2"
     inkscape:window-width="1407"
     inkscape:window-height="661"
     id="namedview6"
     showgrid="false"
     inkscape:zoom="13.882353"
     inkscape:cx="12"
     inkscape:cy="8.5"
     inkscape:window-x="62"
     inkscape:window-y="206"
     inkscape:window-maximized="0"
     inkscape:current-layer="svg4" />
  <path
     d="M 0,17 V 14.025 C 0,13.4229 0.155125,12.8694 0.465375,12.3643 0.774917,11.86 1.18646,11.475 1.7,11.2094 2.79792,10.6604 3.91354,10.2485 5.04687,9.97369 6.18021,9.69956 7.33125,9.5625 8.5,9.5625 c 1.16875,0 2.3198,0.13706 3.4531,0.41119 1.1334,0.27481 2.249,0.68671 3.3469,1.23571 0.5135,0.2656 0.9251,0.6506 1.2346,1.1549 C 16.8449,12.8694 17,13.4229 17,14.025 V 17 Z M 8.5,8.5 C 7.33125,8.5 6.33073,8.08385 5.49844,7.25156 4.66615,6.41927 4.25,5.41875 4.25,4.25 4.25,3.08125 4.66615,2.08073 5.49844,1.24844 6.33073,0.416146 7.33125,0 8.5,0 9.66875,0 10.6693,0.416146 11.5016,1.24844 12.3339,2.08073 12.75,3.08125 12.75,4.25 12.75,5.41875 12.3339,6.41927 11.5016,7.25156 10.6693,8.08385 9.66875,8.5 8.5,8.5 Z M 19.125,4.25 c 0,1.16875 -0.4161,2.16927 -1.2484,3.00156 C 17.0443,8.08385 16.0437,8.5 14.875,8.5 14.6802,8.5 14.4323,8.47804 14.1312,8.43413 13.8302,8.3895 13.5823,8.34063 13.3875,8.2875 13.8656,7.72083 14.2329,7.09219 14.4893,6.40156 14.7464,5.71094 14.875,4.99375 14.875,4.25 14.875,3.50625 14.7464,2.78906 14.4893,2.09844 14.2329,1.40781 13.8656,0.779166 13.3875,0.2125 13.6354,0.123958 13.8833,0.0662294 14.1312,0.0393127 14.3792,0.0131044 14.6271,0 14.875,0 16.0437,0 17.0443,0.416146 17.8766,1.24844 18.7089,2.08073 19.125,3.08125 19.125,4.25 Z m 0,12.75 v -3.1875 c 0,-0.7792 -0.2168,-1.5275 -0.6503,-2.2451 -0.4342,-0.7168 -1.0497,-1.332 -1.8466,-1.84553 0.9031,0.10625 1.7531,0.28763 2.55,0.54403 0.7969,0.2571 1.5406,0.5716 2.2313,0.9435 0.6375,0.3541 1.1245,0.748 1.4609,1.1815 0.3365,0.4342 0.5047,0.9081 0.5047,1.4216 V 17 Z"
     id="path2"
     inkscape:connector-curvature="0"
     style="fill:#ff453a" />
</svg>
