<?xml version="1.0" encoding="UTF-8" standalone="no"?>
<svg
   xmlns:dc="http://purl.org/dc/elements/1.1/"
   xmlns:cc="http://creativecommons.org/ns#"
   xmlns:rdf="http://www.w3.org/1999/02/22-rdf-syntax-ns#"
   xmlns:svg="http://www.w3.org/2000/svg"
   xmlns="http://www.w3.org/2000/svg"
   xmlns:sodipodi="http://sodipodi.sourceforge.net/DTD/sodipodi-0.dtd"
   xmlns:inkscape="http://www.inkscape.org/namespaces/inkscape"
   width="17.999996"
   height="16.114006"
   viewBox="0 0 17.999996 16.114006"
   version="1.1"
   id="svg4"
   sodipodi:docname="commentsIcon.svg"
   style="fill:none"
   inkscape:version="0.92.5 (2060ec1f9f, 2020-04-08)">
  <metadata
     id="metadata10">
    <rdf:RDF>
      <cc:Work
         rdf:about="">
        <dc:format>image/svg+xml</dc:format>
        <dc:type
           rdf:resource="http://purl.org/dc/dcmitype/StillImage" />
      </cc:Work>
    </rdf:RDF>
  </metadata>
  <defs
     id="defs8" />
  <sodipodi:namedview
     pagecolor="#ffffff"
     bordercolor="#666666"
     borderopacity="1"
     objecttolerance="10"
     gridtolerance="10"
     guidetolerance="10"
     inkscape:pageopacity="0"
     inkscape:pageshadow="2"
     inkscape:window-width="975"
     inkscape:window-height="580"
     id="namedview6"
     showgrid="false"
     inkscape:zoom="13.111111"
     inkscape:cx="9.499936"
     inkscape:cy="8.9999471"
     inkscape:window-x="389"
     inkscape:window-y="393"
     inkscape:window-maximized="0"
     inkscape:current-layer="svg4" />
  <path
     d="m 17.079174,7.6605804 c 0.003,1.0465367 -0.273743,2.0788997 -0.807922,3.0130316 -0.633411,1.119408 -1.607099,2.060944 -2.812043,2.719172 C 12.25417,14.051012 10.86559,14.399885 9.4487903,14.40033 8.2639588,14.40313 7.0951528,14.15859 6.0375642,13.686708 L 0.92073918,15.193255 2.6263475,10.673612 C 2.0921592,9.7394801 1.8153367,8.7071171 1.8184258,7.6605804 1.8189771,6.4091711 2.2139653,5.1826048 2.9591352,4.1182807 3.7043147,3.0539476 4.7702581,2.1938891 6.0375642,1.6344355 7.0951528,1.1625969 8.2639588,0.91808818 9.4487903,0.92082128 H 9.8976051 C 11.768751,1.0119953 13.536009,1.70958 14.861096,2.8799931 c 1.325087,1.170422 2.114854,2.7314189 2.218078,4.3841252 z"
     id="path2"
     inkscape:connector-curvature="0"
     style="stroke:#7f7d85;stroke-width:1.84159708;stroke-linecap:round;stroke-linejoin:round" />
</svg>
