<?xml version="1.0" encoding="UTF-8" standalone="no"?>
<svg
   xmlns:dc="http://purl.org/dc/elements/1.1/"
   xmlns:cc="http://creativecommons.org/ns#"
   xmlns:rdf="http://www.w3.org/1999/02/22-rdf-syntax-ns#"
   xmlns:svg="http://www.w3.org/2000/svg"
   xmlns="http://www.w3.org/2000/svg"
   xmlns:sodipodi="http://sodipodi.sourceforge.net/DTD/sodipodi-0.dtd"
   xmlns:inkscape="http://www.inkscape.org/namespaces/inkscape"
   stroke-miterlimit="2"
   viewBox="0 0 19.995001 19.995001"
   version="1.1"
   id="svg4"
   sodipodi:docname="errorIcon.svg"
   width="19.995001"
   height="19.995001"
   style="clip-rule:evenodd;fill-rule:evenodd;stroke-linejoin:round;stroke-miterlimit:2"
   inkscape:version="0.92.5 (2060ec1f9f, 2020-04-08)">
  <metadata
     id="metadata10">
    <rdf:RDF>
      <cc:Work
         rdf:about="">
        <dc:format>image/svg+xml</dc:format>
        <dc:type
           rdf:resource="http://purl.org/dc/dcmitype/StillImage" />
      </cc:Work>
    </rdf:RDF>
  </metadata>
  <defs
     id="defs8" />
  <sodipodi:namedview
     pagecolor="#ffffff"
     bordercolor="#666666"
     borderopacity="1"
     objecttolerance="10"
     gridtolerance="10"
     guidetolerance="10"
     inkscape:pageopacity="0"
     inkscape:pageshadow="2"
     inkscape:window-width="779"
     inkscape:window-height="480"
     id="namedview6"
     showgrid="false"
     inkscape:zoom="9.8333333"
     inkscape:cx="10.19839"
     inkscape:cy="9.4915254"
     inkscape:window-x="62"
     inkscape:window-y="206"
     inkscape:window-maximized="0"
     inkscape:current-layer="svg4" />
  <path
     d="m 9.997,0 c 5.518,0 9.998,4.48 9.998,9.997 0,5.518 -4.48,9.998 -9.998,9.998 C 4.48,19.995 0,15.515 0,9.997 0,4.48 4.48,0 9.997,0 Z m 0,8.933 L 7.276,6.211 C 7.13,6.065 6.937,5.992 6.745,5.992 c -0.404,0 -0.75,0.324 -0.75,0.749 0,0.193 0.073,0.384 0.219,0.531 l 2.722,2.722 -2.728,2.728 c -0.147,0.147 -0.22,0.34 -0.22,0.531 0,0.427 0.35,0.75 0.751,0.75 0.192,0 0.384,-0.073 0.53,-0.219 l 2.728,-2.728 2.729,2.728 c 0.146,0.146 0.338,0.219 0.53,0.219 0.401,0 0.75,-0.323 0.75,-0.75 0,-0.191 -0.073,-0.384 -0.22,-0.531 L 11.059,9.994 13.776,7.277 c 0.146,-0.147 0.219,-0.338 0.219,-0.531 0,-0.425 -0.346,-0.75 -0.75,-0.75 -0.192,0 -0.385,0.073 -0.531,0.22 z"
     id="path2"
     inkscape:connector-curvature="0"
     style="fill-rule:nonzero;fill:#ff0000" />
</svg>
