<?xml version="1.0" encoding="UTF-8" standalone="no"?>
<svg
   xmlns:dc="http://purl.org/dc/elements/1.1/"
   xmlns:cc="http://creativecommons.org/ns#"
   xmlns:rdf="http://www.w3.org/1999/02/22-rdf-syntax-ns#"
   xmlns:svg="http://www.w3.org/2000/svg"
   xmlns="http://www.w3.org/2000/svg"
   xmlns:sodipodi="http://sodipodi.sourceforge.net/DTD/sodipodi-0.dtd"
   xmlns:inkscape="http://www.inkscape.org/namespaces/inkscape"
   width="17.999887"
   height="16.113899"
   viewBox="0 0 17.999887 16.113899"
   version="1.1"
   id="svg4"
   sodipodi:docname="favoriteIconDisactive.svg"
   style="fill:none"
   inkscape:version="0.92.5 (2060ec1f9f, 2020-04-08)">
  <metadata
     id="metadata10">
    <rdf:RDF>
      <cc:Work
         rdf:about="">
        <dc:format>image/svg+xml</dc:format>
        <dc:type
           rdf:resource="http://purl.org/dc/dcmitype/StillImage" />
      </cc:Work>
    </rdf:RDF>
  </metadata>
  <defs
     id="defs8" />
  <sodipodi:namedview
     pagecolor="#ffffff"
     bordercolor="#666666"
     borderopacity="1"
     objecttolerance="10"
     gridtolerance="10"
     guidetolerance="10"
     inkscape:pageopacity="0"
     inkscape:pageshadow="2"
     inkscape:window-width="958"
     inkscape:window-height="536"
     id="namedview6"
     showgrid="false"
     inkscape:zoom="13.882353"
     inkscape:cx="8.9999504"
     inkscape:cy="7.6139"
     inkscape:window-x="62"
     inkscape:window-y="206"
     inkscape:window-maximized="0"
     inkscape:current-layer="svg4" />
  <path
     d="m 9.0512104,15 -0.41955,0.9077 0.44601,0.2062 0.43571,-0.2271 z M 1.2155904,7.22219 0.24247143,7.45249 Z M 9.0512104,5.5 8.0512304,5.50521 10.05125,5.5 Z M 16.67745,7.22219 15.73505,6.88765 Z M 9.0512104,15 c 0.41956,-0.9077 0.41976,-0.9076 0.41993,-0.9076 3e-5,10e-5 1.8e-4,10e-5 2.2e-4,10e-5 10e-5,10e-5 10e-5,10e-5 0,0 -2.1e-4,-10e-5 -8.2e-4,-3e-4 -0.00183,-8e-4 -0.002,-9e-4 -0.00559,-0.0026 -0.01072,-0.005 -0.01025,-0.0049 -0.02663,-0.0127 -0.04878,-0.0234 -0.04429,-0.0213 -0.11157,-0.0543 -0.19886,-0.0984 -0.17467,-0.0884 -0.42886,-0.2213 -0.73879,-0.3956 -0.62142,-0.3494 -1.45895,-0.861 -2.3261,-1.5092 -1.7794,-1.3301 -3.49022,-3.09346 -3.95757,-5.06821 l -1.94623897,0.4606 c 0.637065,2.69191 2.84404897,4.81741 4.70635897,6.20951 0.95371,0.713 1.868,1.2709 2.5432,1.6506 0.33838,0.1903 0.6187,0.3369 0.81645,0.437 0.09893,0.05 0.17734,0.0884 0.23219,0.1149 0.02742,0.0132 0.04897,0.0235 0.06426,0.0307 0.00765,0.0036 0.01373,0.0065 0.0182,0.0086 0.00223,10e-4 0.00407,0.0019 0.00549,0.0025 7.1e-4,4e-4 0.00132,6e-4 0.00183,9e-4 2.5e-4,10e-5 5.6e-4,2e-4 6.8e-4,3e-4 2.8e-4,10e-5 5.3e-4,2e-4 0.42008,-0.9075 z m -6.8625,-8.00811 c -0.27537,-1.16358 -0.27098,-2.47752 0.15637,-3.44229 0.20606,-0.46521 0.50356,-0.83691 0.91078,-1.09783 C 3.6637404,2.19042 4.2445804,2 5.0810304,2 V 0 c -1.14863,0 -2.11976,0.265188 -2.90417,0.767796 C 1.3918004,1.27082 0.85670943,1.97142 0.51644443,2.7396 c -0.665314,1.50199 -0.6085533,3.29914 -0.273973,4.71289 z M 5.0810304,2 c 0.78975,0 1.31914,0.21892 1.69239,0.50096 0.38597,0.29165 0.66605,0.69805 0.86659,1.15265 0.20086,0.45533 0.30621,0.92424 0.35981,1.28874 0.02642,0.17971 0.03934,0.32761 0.04562,0.42718 0.00313,0.04963 0.00457,0.08678 0.00524,0.10933 3.3e-4,0.01126 4.6e-4,0.01884 5.1e-4,0.02246 3e-5,0.00181 3e-5,0.00263 3e-5,0.00242 0,-10e-5 0,-4.7e-4 0,-0.00109 0,-3.1e-4 0,-6.8e-4 0,-0.00113 -10e-6,-2.2e-4 -10e-6,-6e-4 -10e-6,-7.1e-4 0,-4e-4 0,-8.1e-4 1,-8.1e-4 1.0000396,0 1.0000396,-4.5e-4 1.0000396,-9.1e-4 0,-1.8e-4 0,-6.7e-4 0,-0.00102 0,-7.2e-4 0,-0.00151 0,-0.00236 0,-0.00171 -10e-5,-0.00371 -10e-5,-0.00597 0,-0.00454 -10e-5,-0.01017 -2e-4,-0.01688 -10e-5,-0.0134 -5e-4,-0.0311 -0.0011,-0.05279 -0.0013,-0.04337 -0.0037,-0.1029 -0.0084,-0.17632 -0.0092,-0.14652 -0.0273,-0.35018 -0.06291,-0.59235 -0.07047,-0.47925 -0.21325,-1.13534 -0.50866,-1.80501 -0.29574,-0.6704 -0.76007,-1.389 -1.49071,-1.941103 C 7.2358004,0.343577 6.2763804,0 5.0810304,0 Z m 3.97018,3.5 C 10.05125,5.49479 10.05125,5.49518 10.05125,5.49556 c 0,10e-5 0,4.7e-4 0,6.7e-4 0,4.2e-4 0,7.7e-4 0,0.00105 0,5.7e-4 0,8.7e-4 0,9.2e-4 0,1e-4 0,-8.3e-4 0,-0.00276 0,-0.00385 10e-5,-0.01166 4e-4,-0.02316 5e-4,-0.02304 0.0017,-0.0607 0.0044,-0.11087 0.0056,-0.10065 0.0172,-0.24978 0.0416,-0.4308 0.0496,-0.36728 0.1483,-0.83923 0.3384,-1.29711 0.1904,-0.45852 0.4552,-0.86189 0.8146,-1.14801 C 11.59475,2.21158 12.08055,2 12.81195,2 V 0 c -1.1607,0 -2.0911,0.350925 -2.8069,0.920755 C 9.3045804,1.47839 8.8657304,2.20002 8.5889804,2.8665 c -0.27703,0.66712 -0.40902,1.32017 -0.47332,1.79664 -0.0325,0.24085 -0.04858,0.44328 -0.05656,0.58873 -0.004,0.07287 -0.00599,0.13189 -0.00696,0.17478 -4.9e-4,0.02145 -7.3e-4,0.03891 -8.4e-4,0.05209 -6e-5,0.00659 -8e-5,0.01211 -9e-5,0.01653 0,0.00222 0,0.00415 0,0.00581 0,8.3e-4 10e-6,0.00159 10e-6,0.00228 0,3.4e-4 0,8e-4 0,9.8e-4 10e-6,4.4e-4 10e-6,8.7e-4 0.99999,-0.00434 z M 12.81195,2 c 1.5132,0 2.3637,0.68798 2.8037,1.57546 0.4725,0.95291 0.5059,2.22345 0.1194,3.31219 l 1.8848,0.66908 c 0.541,-1.52414 0.5338,-3.36469 -0.2123,-4.86966 C 16.62895,1.11667 15.08285,0 12.81195,0 Z m 2.9231,4.88765 c -0.7349,2.07012 -2.4668,3.87115 -4.1171,5.19295 -0.8121,0.6504 -1.5763,1.1625 -2.1366696,1.5115 -0.27968,0.1741 -0.50719,0.3067 -0.66276,0.3948 -0.07775,0.0439 -0.13741,0.0767 -0.17651,0.0979 -0.01955,0.0106 -0.03395,0.0183 -0.04288,0.0231 -0.00447,0.0023 -0.00757,0.004 -0.00926,0.0049 -8.5e-4,4e-4 -0.00134,7e-4 -0.00148,8e-4 -7e-5,0 -5e-5,0 6e-5,-10e-5 5e-5,0 2e-4,-10e-5 2.3e-4,-10e-5 1.7e-4,-10e-5 3.6e-4,-2e-4 0.46253,0.8866 0.46217,0.8868 0.46241,0.8867 0.46268,0.8865 1.1e-4,0 4e-4,-2e-4 6.4e-4,-3e-4 4.7e-4,-3e-4 0.00103,-5e-4 0.00169,-9e-4 0.0013,-7e-4 0.00298,-0.0016 0.005,-0.0026 0.00406,-0.0022 0.00955,-0.0051 0.01643,-0.0087 0.01376,-0.0073 0.03308,-0.0177 0.05766,-0.031 0.04916,-0.0266 0.11936,-0.0653 0.20808,-0.1154 0.17737,-0.1004 0.4291596,-0.2473 0.7350596,-0.4377 0.6106,-0.3803 1.4424,-0.9376 2.3298,-1.6483 1.7486,-1.4005 3.8298,-3.4884 4.7516,-6.08487 z"
     id="path2"
     inkscape:connector-curvature="0"
     style="fill:#7f7d85" />
</svg>
