<?xml version="1.0" encoding="UTF-8" standalone="no"?>
<svg
   xmlns:dc="http://purl.org/dc/elements/1.1/"
   xmlns:cc="http://creativecommons.org/ns#"
   xmlns:rdf="http://www.w3.org/1999/02/22-rdf-syntax-ns#"
   xmlns:svg="http://www.w3.org/2000/svg"
   xmlns="http://www.w3.org/2000/svg"
   xmlns:sodipodi="http://sodipodi.sourceforge.net/DTD/sodipodi-0.dtd"
   xmlns:inkscape="http://www.inkscape.org/namespaces/inkscape"
   width="18"
   height="17"
   viewBox="0 0 18 17"
   fill="none"
   version="1.1"
   id="svg4"
   sodipodi:docname="favoriteIconActive.svg"
   inkscape:version="0.92.5 (2060ec1f9f, 2020-04-08)">
  <metadata
     id="metadata10">
    <rdf:RDF>
      <cc:Work
         rdf:about="">
        <dc:format>image/svg+xml</dc:format>
        <dc:type
           rdf:resource="http://purl.org/dc/dcmitype/StillImage" />
        <dc:title></dc:title>
      </cc:Work>
    </rdf:RDF>
  </metadata>
  <defs
     id="defs8" />
  <sodipodi:namedview
     pagecolor="#ffffff"
     bordercolor="#666666"
     borderopacity="1"
     objecttolerance="10"
     gridtolerance="10"
     guidetolerance="10"
     inkscape:pageopacity="0"
     inkscape:pageshadow="2"
     inkscape:window-width="1661"
     inkscape:window-height="905"
     id="namedview6"
     showgrid="false"
     inkscape:zoom="13.882353"
     inkscape:cx="9"
     inkscape:cy="8.5"
     inkscape:window-x="62"
     inkscape:window-y="206"
     inkscape:window-maximized="0"
     inkscape:current-layer="svg4" />
  <path
     d="M9.05126 15L8.63171 15.9077L9.07772 16.1139L9.51343 15.8868L9.05126 15ZM1.21564 7.22219L0.242521 7.45249L1.21564 7.22219ZM9.05126 5.5L8.05128 5.50521L10.0513 5.5L9.05126 5.5ZM16.6775 7.22219L15.7351 6.88765L16.6775 7.22219ZM9.05126 15C9.47082 14.0923 9.47102 14.0924 9.47119 14.0924C9.47122 14.0925 9.47137 14.0925 9.47141 14.0925C9.47151 14.0926 9.47151 14.0926 9.47141 14.0925C9.4712 14.0924 9.47059 14.0922 9.46958 14.0917C9.46758 14.0908 9.46399 14.0891 9.45886 14.0867C9.44861 14.0818 9.43223 14.074 9.41008 14.0633C9.36579 14.042 9.29851 14.009 9.21122 13.9649C9.03655 13.8765 8.78236 13.7436 8.47243 13.5693C7.85101 13.2199 7.01348 12.7083 6.14633 12.0601C4.36693 10.73 2.65611 8.96664 2.18876 6.99189L0.242521 7.45249C0.879586 10.1444 3.08657 12.2699 4.94888 13.662C5.90259 14.375 6.81688 14.9329 7.49208 15.3126C7.83046 15.5029 8.11078 15.6495 8.30853 15.7496C8.40746 15.7996 8.48587 15.838 8.54072 15.8645C8.56814 15.8777 8.58969 15.888 8.60498 15.8952C8.61263 15.8988 8.61871 15.9017 8.62318 15.9038C8.62541 15.9048 8.62725 15.9057 8.62867 15.9063C8.62938 15.9067 8.62999 15.9069 8.6305 15.9072C8.63075 15.9073 8.63106 15.9074 8.63118 15.9075C8.63146 15.9076 8.63171 15.9077 9.05126 15ZM2.18876 6.99189C1.91339 5.82831 1.91778 4.51437 2.34513 3.5496C2.55119 3.08439 2.84869 2.71269 3.25591 2.45177C3.66379 2.19042 4.24463 2 5.08108 2V0C3.93245 0 2.96132 0.265188 2.17691 0.767796C1.39185 1.27082 0.856759 1.97142 0.516494 2.7396C-0.14882 4.24159 -0.0920593 6.03874 0.242521 7.45249L2.18876 6.99189ZM5.08108 2C5.87083 2 6.40022 2.21892 6.77347 2.50096C7.15944 2.79261 7.43952 3.19901 7.64006 3.65361C7.84092 4.10894 7.94627 4.57785 7.99987 4.94235C8.02629 5.12206 8.03921 5.26996 8.04549 5.36953C8.04862 5.41916 8.05006 5.45631 8.05073 5.47886C8.05106 5.49012 8.05119 5.4977 8.05124 5.50132C8.05127 5.50313 8.05127 5.50395 8.05127 5.50374C8.05127 5.50364 8.05127 5.50327 8.05127 5.50265C8.05127 5.50234 8.05127 5.50197 8.05127 5.50152C8.05126 5.5013 8.05126 5.50092 8.05126 5.50081C8.05126 5.50041 8.05126 5.5 9.05126 5.5C10.0513 5.5 10.0513 5.49955 10.0513 5.49909C10.0513 5.49891 10.0513 5.49842 10.0513 5.49807C10.0513 5.49735 10.0513 5.49656 10.0513 5.49571C10.0513 5.494 10.0512 5.492 10.0512 5.48974C10.0512 5.4852 10.0511 5.47957 10.051 5.47286C10.0509 5.45946 10.0505 5.44176 10.0499 5.42007C10.0486 5.3767 10.0462 5.31717 10.0415 5.24375C10.0323 5.09723 10.0142 4.89357 9.97859 4.6514C9.90812 4.17215 9.76534 3.51606 9.46993 2.84639C9.17419 2.17599 8.70986 1.45739 7.97922 0.905287C7.23585 0.343577 6.27643 0 5.08108 0V2ZM9.05126 5.5C10.0513 5.49479 10.0513 5.49518 10.0513 5.49556C10.0513 5.49566 10.0513 5.49603 10.0513 5.49623C10.0513 5.49665 10.0513 5.497 10.0513 5.49728C10.0513 5.49785 10.0513 5.49815 10.0513 5.4982C10.0513 5.4983 10.0513 5.49737 10.0513 5.49544C10.0513 5.49159 10.0514 5.48378 10.0517 5.47228C10.0522 5.44924 10.0534 5.41158 10.0561 5.36141C10.0617 5.26076 10.0733 5.11163 10.0977 4.93061C10.1473 4.56333 10.246 4.09138 10.4361 3.6335C10.6265 3.17498 10.8913 2.77161 11.2507 2.48549C11.5948 2.21158 12.0806 2 12.812 2V0C11.6513 0 10.7209 0.350925 10.0051 0.920755C9.30463 1.47839 8.86578 2.20002 8.58903 2.8665C8.312 3.53362 8.18001 4.18667 8.11571 4.66314C8.08321 4.90399 8.06713 5.10642 8.05915 5.25187C8.05515 5.32474 8.05316 5.38376 8.05219 5.42665C8.0517 5.4481 8.05146 5.46556 8.05135 5.47874C8.05129 5.48533 8.05127 5.49085 8.05126 5.49527C8.05126 5.49749 8.05126 5.49942 8.05126 5.50108C8.05126 5.50191 8.05127 5.50267 8.05127 5.50336C8.05127 5.5037 8.05127 5.50416 8.05127 5.50434C8.05128 5.50478 8.05128 5.50521 9.05126 5.5ZM12.812 2C14.3252 2 15.1757 2.68798 15.6157 3.57546C16.0882 4.52837 16.1216 5.79891 15.7351 6.88765L17.6199 7.55673C18.1609 6.03259 18.1537 4.19204 17.4076 2.68707C16.629 1.11667 15.0829 0 12.812 0V2ZM15.7351 6.88765C15.0002 8.95777 13.2683 10.7588 11.618 12.0806C10.8059 12.731 10.0417 13.2431 9.48133 13.5921C9.20165 13.7662 8.97414 13.8988 8.81857 13.9869C8.74082 14.0308 8.68116 14.0636 8.64206 14.0848C8.62251 14.0954 8.60811 14.1031 8.59918 14.1079C8.59471 14.1102 8.59161 14.1119 8.58992 14.1128C8.58907 14.1132 8.58858 14.1135 8.58844 14.1136C8.58837 14.1136 8.58839 14.1136 8.5885 14.1135C8.58855 14.1135 8.5887 14.1134 8.58873 14.1134C8.5889 14.1133 8.58909 14.1132 9.05126 15C9.51343 15.8868 9.51367 15.8867 9.51394 15.8865C9.51405 15.8865 9.51434 15.8863 9.51458 15.8862C9.51505 15.8859 9.51561 15.8857 9.51627 15.8853C9.51757 15.8846 9.51925 15.8837 9.52127 15.8827C9.52533 15.8805 9.53082 15.8776 9.5377 15.874C9.55146 15.8667 9.57078 15.8563 9.59536 15.843C9.64452 15.8164 9.71472 15.7777 9.80344 15.7276C9.98081 15.6272 10.2326 15.4803 10.5385 15.2899C11.1491 14.9096 11.9809 14.3523 12.8683 13.6416C14.6169 12.2411 16.6981 10.1532 17.6199 7.55673L15.7351 6.88765Z"
     fill="#7F7D85"
     id="path2"
     style="fill:#ff453f;fill-opacity:0.94117647" />
  <path
     style="fill:#ff453f;fill-opacity:0.94117647;stroke-width:0.0720339"
     d="M 8.3228814,13.44406 C 5.0445836,11.544631 2.8918922,9.3062877 2.2666316,7.1468431 2.0543868,6.4138193 1.997536,4.9332531 2.1557888,4.2601617 2.5252193,2.6888757 3.5241136,1.9794435 5.2535916,2.060048 6.0386285,2.0966356 6.4814119,2.2685354 6.9419782,2.7155226 7.4912275,3.248578 7.7995696,3.9230136 7.9661625,4.9557168 l 0.088349,0.547673 h 0.9972192 c 1.1319453,0 1.0182573,0.072569 1.1066853,-0.7064191 0.05116,-0.450697 0.347443,-1.3061051 0.579964,-1.6744425 0.253099,-0.4009352 0.779422,-0.8237271 1.190852,-0.9566041 0.453097,-0.1463342 1.332069,-0.1557198 1.843,-0.019679 1.101768,0.2933569 1.798804,1.0385668 2.077641,2.2212313 0.514915,2.1839653 -0.81554,4.7380014 -3.803704,7.3018636 -0.729942,0.626295 -2.0994997,1.62367 -2.7508302,2.003281 l -0.2881356,0.167933 z"
     id="path817"
     inkscape:connector-curvature="0" />
  <path
     style="fill:#ff453f;fill-opacity:0.94117647;stroke-width:0.0720339"
     d="M 8.2376789,15.67186 C 6.0790073,14.567418 3.7639571,12.850602 2.5208219,11.4323 1.7298521,10.529876 1.3030055,9.9044492 0.85878327,8.9970339 0.24148236,7.7360704 -0.01162325,6.4676381 0.06103765,4.9991525 0.18543907,2.4849845 1.4304274,0.78321118 3.5698751,0.20292638 4.1584089,0.04329766 5.7272948,0.01996989 6.3059322,0.16224393 7.2650023,0.39805795 8.2589974,1.0473322 8.8383754,1.8164274 l 0.1799572,0.238885 0.3102198,-0.4021019 c 0.8608986,-1.11588511 2.2540416,-1.69980241 3.8191256,-1.60073588 0.874636,0.05536263 1.397873,0.19178686 2.162491,0.56382862 1.159689,0.56427166 2.082278,1.74001916 2.462038,3.13761966 0.183841,0.6765764 0.220237,2.2459223 0.06814,2.9380263 -0.240956,1.0964322 -0.968209,2.5705988 -1.854973,3.7600948 -0.606086,0.812999 -2.08821,2.305802 -3.093372,3.115661 -0.947394,0.763317 -2.415053,1.760862 -3.2804276,2.229657 L 9.0633963,16.094321 Z M 10.0464,13.253578 C 13.266308,11.100105 15.459726,8.4889032 15.919822,6.2614345 16.274635,4.5436731 15.675256,2.9596549 14.436163,2.3404729 13.261883,1.7536779 11.799615,1.88739 11.035578,2.651428 10.55307,3.1339357 10.037316,4.4482952 10.060345,5.1367346 c 0.0086,0.2580105 0.0088,0.25786 0.07628,-0.065548 0.271634,-1.302014 0.535362,-1.914905 1.0125,-2.3530004 0.445004,-0.4085891 0.728771,-0.5418244 1.279691,-0.6008436 2.101256,-0.2251045 3.46842,1.026209 3.468485,3.1745735 4e-5,1.3112662 -0.500182,2.5713873 -1.585176,3.9932536 -0.534755,0.7007883 -1.785744,1.9468143 -2.675682,2.6650663 -0.848109,0.684494 -2.4894861,1.837052 -2.616175,1.837052 -0.097847,0 -1.7768004,-1.029279 -2.3901813,-1.465295 C 4.4079014,10.742372 2.9192436,8.9962567 2.3724677,7.328038 2.1744383,6.723848 2.1640365,6.6287323 2.1650486,5.4313559 2.1660182,4.2838595 2.1810289,4.1335889 2.3323566,3.7564176 2.5930505,3.1066606 2.9794568,2.6728824 3.5460205,2.3939631 3.9943962,2.1732277 4.0987997,2.1517504 4.8374711,2.1282929 5.9258974,2.0937284 6.3027119,2.2051381 6.8682349,2.7287128 7.401642,3.2225539 7.6893202,3.7925607 7.8817443,4.7368877 8.0320553,5.474545 8.1481415,5.7731672 8.0666525,5.2125499 7.8281497,3.5717322 7.220355,2.5566809 6.2546956,2.1864782 5.3994905,1.8586203 4.2009976,1.9287623 3.4005293,2.3535188 2.4787798,2.8426312 1.9827813,3.9187081 1.9848446,5.4248702 c 0.0036,2.6243424 1.5349284,4.8780678 4.8613418,7.1546318 0.9098314,0.622681 2.033656,1.27982 2.1887162,1.27982 0.058178,0 0.5133517,-0.272585 1.0114974,-0.605744 z"
     id="path819"
     inkscape:connector-curvature="0" />
  <path
     style="fill:#ff453f;fill-opacity:0.94117647;stroke-width:0.0720339"
     d="m 12.735948,2.0661064 c 0.109496,-0.016557 0.271572,-0.016115 0.36017,9.833e-4 0.0886,0.017098 -9.91e-4,0.030645 -0.199084,0.030104 -0.198093,-5.408e-4 -0.270582,-0.01453 -0.161086,-0.031087 z"
     id="path821"
     inkscape:connector-curvature="0" />
  <path
     style="fill:#ff453f;fill-opacity:0.94117647;stroke-width:0.0720339"
     d="M 8.2261658,15.666091 C 5.5153414,14.249905 3.1896439,12.404396 1.8189484,10.58178 1.2298315,9.7984297 0.52846211,8.4115157 0.33109354,7.6396408 0.00194038,6.3523783 -0.04217212,4.738548 0.22347673,3.7025424 0.68513627,1.9021134 1.8687273,0.66433059 3.5698751,0.20292638 4.1658202,0.0412875 5.7313728,0.01966767 6.3059322,0.16514223 7.2407586,0.40183398 8.1768946,0.98426823 8.6979244,1.653365 L 9.0072034,2.0505352 9.2204922,1.7780218 C 9.7981803,1.0399261 10.456221,0.5654464 11.312288,0.26973606 11.82623,0.09220551 11.989845,0.07064139 12.825,0.07036308 c 1.102623,-3.6737e-4 1.583455,0.10543367 2.482731,0.54629408 1.168281,0.57273684 2.086608,1.74215174 2.463657,3.13726574 0.200567,0.7421154 0.219518,2.3332967 0.03659,3.0722101 -0.266758,1.0775337 -0.977024,2.4903986 -1.824814,3.62993 -0.557701,0.749618 -2.335319,2.525602 -3.254547,3.251556 -0.84818,0.669844 -2.306137,1.646262 -3.1213184,2.090401 L 9.0548502,16.099012 Z M 9.6985422,13.479032 C 11.004201,12.658691 12.322982,11.586208 13.365254,10.497123 14.993895,8.7953332 15.888925,7.1407376 16.002835,5.6211591 16.101974,4.2986449 15.573711,3.0407584 14.681564,2.4749748 14.119863,2.1187552 13.698652,2.0117853 12.861017,2.0126331 c -0.92882,9.4e-4 -1.337086,0.1545835 -1.840306,0.6925665 -0.502113,0.5367994 -0.982548,1.7397645 -0.959301,2.4020038 0.0063,0.1784384 0.01975,0.1596068 0.07739,-0.1080509 0.259114,-1.2033176 0.548095,-1.8537218 1.014738,-2.2838584 0.43539,-0.4013286 0.71043,-0.5317364 1.270328,-0.602316 1.267109,-0.159729 2.460773,0.3484228 3.006699,1.2799741 0.598048,1.0204929 0.619068,2.5768521 0.05307,3.9297063 C 14.683904,9.2341954 12.577984,11.444424 9.7453254,13.345192 9.438157,13.551309 9.139624,13.738066 9.0819191,13.76021 8.8953211,13.831814 6.8858149,12.558286 5.7339055,11.6384 4.0430568,10.28813 2.8789127,8.8014035 2.3683506,7.3402542 2.1769047,6.7923661 2.1669358,6.7001211 2.1659483,5.4673729 2.1649952,4.2776713 2.1786663,4.136599 2.3317543,3.7564176 2.5936738,3.1059624 2.9798003,2.6727133 3.5460205,2.3939631 3.9943962,2.1732277 4.0987997,2.1517504 4.8374711,2.1282929 5.9239148,2.0937914 6.3030645,2.2054647 6.8646129,2.7253595 7.372286,3.1953753 7.6259887,3.6722356 7.8266607,4.5336283 8.0056297,5.3018582 8.1117262,5.5973807 8.0584428,5.1792373 7.9454727,4.2926981 7.5250663,3.2251746 7.1189003,2.7934872 6.5544075,2.1935241 5.7886388,1.9308282 4.7909843,1.9948984 3.3979021,2.0843634 2.5356214,2.7417457 2.1576778,4.0024685 1.9504848,4.6936111 1.9661741,6.2699351 2.1880314,7.0521186 2.6749198,8.7687008 3.9683442,10.44153 5.9670359,11.939631 c 1.1407899,0.855069 2.8279599,1.91767 3.0471843,1.919155 0.043477,2.88e-4 0.3514224,-0.170594 0.684322,-0.379754 z"
     id="path823"
     inkscape:connector-curvature="0" />
  <path
     style="fill:#ff453f;fill-opacity:0.94117647;stroke-width:0.0720339"
     d="M 8.1067797,15.614056 C 5.2454485,14.100983 2.8216469,12.103597 1.5373901,10.200411 1.0116616,9.4213157 0.49450693,8.2998322 0.2849078,7.484322 0.01475622,6.4332143 -0.03243169,4.9475673 0.17279681,3.954661 0.624313,1.7702019 2.0738281,0.37777671 4.1904591,0.09523632 6.0634702,-0.15478424 7.6544673,0.38448575 8.6802113,1.6170424 L 9.0247962,2.0311031 9.2934099,1.6788734 C 9.7873204,1.0312155 10.497032,0.53316447 11.348305,0.23681975 c 0.625889,-0.21788407 2.226655,-0.23789249 2.95339,-0.0369152 1.342038,0.37113788 2.457369,1.28310135 3.050364,2.49416325 0.495595,1.0121441 0.583156,1.4214987 0.577806,2.7012712 -0.004,0.9532107 -0.02719,1.1568871 -0.196942,1.7288135 -0.250755,0.8448266 -0.933847,2.2015454 -1.541401,3.0614405 -0.593496,0.84 -2.587595,2.864055 -3.546607,3.599886 C 11.52787,14.642565 9.2678011,16.0957 9.0586803,16.091287 9.0303681,16.09071 8.6020127,15.875935 8.1067797,15.614056 Z M 9.9488428,13.296021 C 11.762277,12.107124 13.569675,10.455757 14.537985,9.1030556 15.105386,8.3104118 15.680945,7.1814339 15.858988,6.5118644 16.047542,5.8027639 16.033395,4.7316179 15.827116,4.0987288 15.380609,2.7287934 14.38412,2.0202745 12.897034,2.015395 11.74428,2.011615 11.102321,2.3806385 10.600549,3.3355136 c -0.256342,0.4878182 -0.554783,1.4577058 -0.543166,1.7652041 0.0031,0.082804 0.08214,-0.1500471 0.175577,-0.5174478 0.307896,-1.210646 0.75088,-1.9103459 1.432258,-2.2622737 0.410231,-0.2118823 1.130427,-0.2958801 1.736053,-0.202479 1.600307,0.2468033 2.496009,1.389023 2.496005,3.1829612 -4e-6,1.7750478 -0.958367,3.5375398 -3.00954,5.5347436 -0.900786,0.877084 -2.51987,2.156817 -3.4223552,2.705049 L 9.0209806,13.811229 8.6539225,13.607496 C 5.9451448,12.104009 3.708779,10.079686 2.7644599,8.2764486 2.2360893,7.2674914 2.1639831,6.9258482 2.1639831,5.4313559 V 4.0987288 L 2.3874781,3.6270964 C 2.6925199,2.9833794 2.9906171,2.6674016 3.5551318,2.3894036 4.0013986,2.1696374 4.0917026,2.1521769 4.8996046,2.1294475 5.6460028,2.1084484 5.8221855,2.1263104 6.174615,2.2587152 6.7214458,2.4641543 7.3581616,3.1339497 7.6235691,3.7829477 7.7269989,4.0358646 7.8132033,4.2015658 7.8151339,4.1511726 7.8231577,3.9417263 7.379372,3.1153836 7.0906435,2.8021503 6.3576098,2.0069026 5.0917578,1.7744104 3.8017777,2.1981021 2.5688909,2.6030417 1.9061931,3.9229093 2.0156248,5.7555085 c 0.056862,0.952238 0.1997649,1.5074454 0.6118388,2.3771186 0.7332794,1.5475705 2.2351606,3.0974289 4.4348245,4.5764939 0.7185864,0.48318 1.8471732,1.148384 1.950114,1.149422 0.042478,4.33e-4 0.4638767,-0.252707 0.9364407,-0.562522 z M 7.9618698,4.6709433 C 7.8475794,4.1204114 7.8015043,4.2116683 7.9070918,4.7794363 7.9537548,5.0303503 8.0040188,5.1993859 8.0187905,5.155071 8.0335615,5.110756 8.0079475,4.8928987 7.9618698,4.6709433 Z"
     id="path825"
     inkscape:connector-curvature="0" />
  <path
     style="fill:#ff453f;fill-opacity:0.94117647;stroke-width:0.0720339"
     d=""
     id="path827"
     inkscape:connector-curvature="0" />
  <path
     style="fill:#ff453f;fill-opacity:0.94117647;stroke-width:0.0720339"
     d="M 8.2698003,15.70122 C 6.5316674,14.786523 4.7890987,13.595104 3.5292677,12.46005 1.6469499,10.764163 0.4747204,8.7989205 0.14956737,6.7939834 -0.25546923,4.2964735 0.42998311,2.1011022 1.9705754,0.96164671 2.8812677,0.28807888 4.1333857,-0.0363112 5.4775424,0.05308587 6.8070917,0.14151142 7.8927158,0.67077039 8.6765642,1.6126601 L 9.0175021,2.0223384 9.3824618,1.5764379 C 9.8392806,1.0183055 10.644213,0.47232639 11.351926,0.24056609 11.816562,0.08840795 12.019029,0.0652868 12.861017,0.06823152 c 0.702954,0.0024584 1.102219,0.03911802 1.440678,0.13227972 1.338921,0.3685412 2.454343,1.28218516 3.052737,2.50050256 0.494331,1.0064453 0.581531,1.4155313 0.57432,2.6943252 -0.0054,0.9511931 -0.02917,1.1580977 -0.198872,1.7288135 -0.253867,0.8537415 -0.935523,2.2099525 -1.538735,3.0614405 -0.597008,0.842729 -2.594963,2.871196 -3.54623,3.600387 -1.114175,0.854068 -3.3733904,2.309982 -3.5765462,2.304847 -0.033641,-8.5e-4 -0.3929968,-0.176173 -0.7985685,-0.389607 z m 1.7237503,-2.438012 c 1.2041554,-0.804146 2.1672804,-1.587021 3.1215614,-2.537361 0.799419,-0.796116 1.60058,-1.792955 1.897015,-2.3603465 0.08762,-0.1676986 0.117582,-0.2441373 0.0666,-0.1698632 -1.314688,1.9151247 -2.510946,3.1252147 -4.577953,4.6308877 -0.480671,0.350136 -1.01911,0.715685 -1.1965302,0.812332 L 8.9816558,13.814577 8.0318846,13.24267 C 5.4489606,11.687357 3.5520658,9.8602932 2.6601844,8.0687201 2.4804525,7.7076826 2.3562573,7.4933263 2.3841951,7.5923729 c 0.09329,0.3307371 0.5188895,1.110749 0.9031013,1.6551474 0.7410727,1.0500427 2.1603644,2.3707127 3.5749199,3.3265097 0.7770381,0.525034 2.0508654,1.285292 2.1535339,1.285292 0.046837,0 0.4868469,-0.268251 0.9778004,-0.596114 z M 15.450516,7.5743644 C 15.753392,6.903788 15.881882,6.4830359 15.963928,5.8931411 16.119103,4.7774774 15.754989,3.499057 15.093716,2.8377839 14.713237,2.4573046 14.008866,2.1230186 13.501029,2.0819134 l -0.387893,-0.031397 0.393112,0.071214 c 0.817592,0.1481094 1.549468,0.6315946 1.924315,1.2712217 0.643101,1.0973697 0.625692,2.6883606 -0.04562,4.168905 -0.115394,0.254495 -0.193599,0.4627191 -0.17379,0.4627191 0.01981,0 0.127522,-0.2025954 0.239362,-0.4502119 z M 2.2492074,7.0025953 c -0.022995,-0.057464 -0.040064,-0.040395 -0.043521,0.04352 -0.00313,0.075936 0.013897,0.1184809 0.037834,0.094545 0.023936,-0.023936 0.026495,-0.086066 0.00569,-0.138065 z M 2.1639831,5.5086235 c 0,-0.8339017 -0.024043,-1.302531 -0.061904,-1.2065907 -0.082294,0.208532 -0.097477,1.6344843 -0.022955,2.1558062 0.032565,0.2278072 0.06498,0.4142052 0.072034,0.4142177 0.00705,1.26e-5 0.012825,-0.6135324 0.012825,-1.3634332 z M 7.9627119,4.675 C 7.9161708,4.4508135 7.8647169,4.2807634 7.8483696,4.2971108 7.8320222,4.3134583 7.8556918,4.5112929 7.9009687,4.7367434 7.9462456,4.9621938 7.9976994,5.132244 8.015311,5.1146325 8.0329226,5.0970211 8.009253,4.8991865 7.9627119,4.675 Z M 10.59852,3.4865475 c 0.336363,-0.7371661 0.997363,-1.2633012 1.720724,-1.3696406 0.311389,-0.045777 0.325907,-0.054421 0.104393,-0.062158 -0.693941,-0.024238 -1.396802,0.4695395 -1.823088,1.2807642 -0.243679,0.4637207 -0.556093,1.4575538 -0.543576,1.7291871 0.0029,0.062995 0.08525,-0.1771527 0.183,-0.5336617 0.09775,-0.3565091 0.259093,-0.8265302 0.358547,-1.044491 z M 7.5651654,3.5244406 C 6.9620284,2.3037856 5.7555828,1.7634982 4.315917,2.0693166 3.3927006,2.2654292 2.7825045,2.6961981 2.4192216,3.4082912 2.1918007,3.8540732 2.2478809,3.8591526 2.4926998,3.4149465 2.7918572,2.872147 3.0202804,2.6527919 3.5663589,2.3839096 3.9964457,2.1721402 4.1008111,2.1517866 4.8766919,2.1283647 5.9647418,2.0955192 6.2936511,2.1967494 6.8886223,2.7475879 7.1974475,3.0335054 7.3856469,3.2872014 7.54896,3.637735 7.6745871,3.907378 7.7903254,4.1150418 7.806157,4.0992102 7.8219886,4.0833786 7.7135423,3.8247323 7.5651654,3.5244406 Z M 13.024464,1.998513 c -0.04877,-0.019732 -0.146015,-0.020933 -0.216102,-0.00267 -0.07009,0.018264 -0.03018,0.034408 0.08867,0.035876 0.118856,0.00147 0.176199,-0.013475 0.12743,-0.033207 z"
     id="path829"
     inkscape:connector-curvature="0" />
  <path
     style="fill:#ff453f;fill-opacity:0.94117647;stroke-width:0.0720339"
     d="M 8.1427966,15.635752 C 5.2184984,14.099845 2.8288465,12.122866 1.4882761,10.130409 1.0153541,9.4275171 0.48870786,8.275054 0.27908183,7.484322 0.10807515,6.8392666 0.08743173,6.6284726 0.08155859,5.4673729 0.07573602,4.316271 0.09359273,4.1065498 0.24067805,3.5985677 0.75515394,1.8217449 1.9044029,0.64671386 3.5686441,0.19594268 4.2360116,0.01518158 5.8865666,0.01673253 6.4860169,0.198684 7.2676467,0.43593255 7.8862925,0.81279046 8.4886378,1.418613 L 9.0505815,1.9837999 9.2031846,1.7806711 C 9.4866488,1.4033552 10.126357,0.83024982 10.504347,0.61497903 c 0.580099,-0.33037448 1.218256,-0.51418767 1.952614,-0.56242585 2.203131,-0.14471833 4.010226,0.8396826 4.910196,2.67479142 0.3886,0.7923873 0.523992,1.3037409 0.58244,2.199774 0.111837,1.7145177 -0.446648,3.374634 -1.775271,5.2770544 -0.571162,0.817832 -2.566044,2.842096 -3.529411,3.581396 -1.15753,0.888302 -3.3603386,2.309772 -3.5727558,2.305496 -0.035726,-7.2e-4 -0.4539389,-0.20561 -0.9293626,-0.455313 z m 1.0079646,-1.847639 c 0.025236,-0.04083 -0.00368,-0.05291 -0.067782,-0.02831 -0.1247929,0.04789 -0.1476255,0.09952 -0.04401,0.09952 0.03728,0 0.087587,-0.03204 0.111792,-0.07121 z m -0.2516087,-0.02913 c 0,-0.01557 -0.050306,-0.04761 -0.1117922,-0.07121 -0.064104,-0.0246 -0.093019,-0.01252 -0.067782,0.02831 0.042303,0.06845 0.1795747,0.10124 0.1795742,0.0429 z m -0.2881356,-0.14493 c 0,-0.01605 -0.1539724,-0.118653 -0.342161,-0.22802 -0.1881885,-0.109366 -0.4150953,-0.245835 -0.5042373,-0.303265 -0.089142,-0.05743 -0.1620762,-0.08628 -0.1620762,-0.06411 0,0.03364 0.9351628,0.622961 0.9904661,0.62417 0.0099,2.16e-4 0.018008,-0.01273 0.018008,-0.02878 z m 2.2822491,-0.990284 c 1.544146,-1.153038 3.018641,-2.59741 3.74329,-3.6668184 0.520364,-0.7679303 0.414804,-0.6714719 -0.28251,0.2581522 -0.719791,0.9595912 -2.174671,2.3568062 -3.448284,3.3116112 -0.568783,0.426406 -1.0503595,0.791621 -1.0701688,0.811588 -0.1440375,0.145181 0.3847728,-0.212068 1.0576728,-0.714533 z m -3.3627575,0.345333 c 0,-0.0142 -0.1863877,-0.148916 -0.4141949,-0.299367 C 5.1895174,11.397206 3.5787371,9.7774326 2.783486,8.3127119 2.6221578,8.015572 2.4897061,7.8056581 2.4891488,7.8462355 2.4875129,7.9653414 3.106705,9.0165918 3.4332157,9.4490524 4.165163,10.41851 5.4649494,11.602396 6.8396392,12.55173 c 0.6243301,0.43115 0.6908693,0.471348 0.6908693,0.417367 z M 15.454237,7.5665992 c 0,-0.091522 -0.03327,-0.050656 -0.138284,0.1698415 -0.08087,0.1698033 -0.07937,0.1721019 0.02626,0.040258 0.06161,-0.076905 0.112025,-0.1714494 0.112025,-0.2100991 z M 15.85241,6.468148 C 16.020799,5.8387779 16.006643,4.7182078 15.822932,4.1347458 15.654794,3.6007402 15.371679,3.1251251 15.017478,2.7816329 14.736817,2.5094574 13.989876,2.1155128 13.767944,2.1226154 c -0.08474,0.00271 -0.01786,0.046295 0.152977,0.099685 1.277169,0.3991454 1.989962,1.5277991 1.97756,3.1313181 -0.005,0.6428171 -0.08109,1.0221393 -0.398646,1.986636 -0.02609,0.079237 0.01701,0.010942 0.09578,-0.1517675 0.07877,-0.162709 0.194325,-0.4868615 0.256792,-0.7203387 z M 2.1304195,5.5394068 C 2.0963575,4.4551554 2.0863977,4.3787648 2.0435032,4.872768 c -0.026645,0.3068655 -0.01942,0.8579249 0.016057,1.2245763 0.035477,0.3666513 0.065381,0.6801451 0.066454,0.6966529 0.00107,0.016508 0.01116,0.016508 0.022414,0 0.011254,-0.016508 0.00315,-0.5810735 -0.018009,-1.2545904 z M 10.339764,4.2067797 c 0.08908,-0.2971399 0.223438,-0.6618115 0.298579,-0.8103814 0.07514,-0.1485699 0.120411,-0.2701271 0.100602,-0.2701271 -0.106193,0 -0.539723,1.1414069 -0.64296,1.6927966 -0.05796,0.3095482 0.0448,0.051464 0.243779,-0.6122881 z M 7.9383846,4.6209746 c -0.019983,-0.049523 -0.036333,-0.009 -0.036333,0.090042 0,0.099047 0.01635,0.1395657 0.036333,0.090042 0.019983,-0.049523 0.019983,-0.1305614 0,-0.180084 z M 2.545176,3.3243644 C 2.8064053,2.8645728 2.9861456,2.6921453 3.4986662,2.4096672 3.7154379,2.2901925 3.8603814,2.1921573 3.8207627,2.1918114 3.6650447,2.1904518 3.0049102,2.6247525 2.789115,2.8705296 2.5778211,3.1111802 2.2299715,3.7025424 2.2997106,3.7025424 c 0.016833,0 0.1272921,-0.1701801 0.2454654,-0.378178 z M 7.3364881,3.1182052 C 6.9014483,2.3687976 5.7589643,1.8901922 4.6976088,2.0127354 3.8704069,2.1082435 3.9196974,2.1606612 4.8088734,2.1310592 6.0360583,2.0902043 6.3182658,2.1835643 6.9542373,2.8407889 7.2117585,3.106916 7.432394,3.3286426 7.4445389,3.3335147 7.4566831,3.338387 7.4080602,3.2414974 7.3364881,3.1182052 Z M 11.780508,2.2671907 c 0.178284,-0.080427 0.274096,-0.146942 0.212915,-0.1478121 -0.194243,-0.00276 -0.876499,0.4569905 -1.066607,0.718757 -0.162258,0.2234197 -0.142541,0.2135963 0.173219,-0.086298 0.195977,-0.1861292 0.50219,-0.4042203 0.680473,-0.4846469 z m 0.667685,-0.1966438 c -0.04877,-0.019732 -0.146015,-0.020933 -0.216102,-0.00267 -0.07009,0.018264 -0.03018,0.034408 0.08867,0.035876 0.118856,0.00147 0.176199,-0.013475 0.12743,-0.033207 z m 1.079138,-4.538e-4 c -0.04952,-0.019983 -0.130562,-0.019983 -0.180085,0 -0.04952,0.019983 -0.009,0.036333 0.09004,0.036333 0.09905,0 0.139566,-0.01635 0.09004,-0.036333 z"
     id="path831"
     inkscape:connector-curvature="0" />
  <path
     style="fill:#ff453f;fill-opacity:0.94117647;stroke-width:0.0720339"
     d="M 8.1427966,15.635849 C 5.8264948,14.419535 3.7436639,12.850114 2.3882942,11.29981 1.1413883,9.873569 0.41296287,8.4113219 0.14193343,6.7904482 -0.01992159,5.8224848 0.03100327,4.3384329 0.25257345,3.5661778 0.74686283,1.8433942 1.8035307,0.73349986 3.4245763,0.23439496 4.1478427,0.01170792 5.810158,-0.00801113 6.4860169,0.19807891 7.2703458,0.43724475 7.8866621,0.81316093 8.4909897,1.4209934 L 9.0552846,1.9885606 9.1676402,1.8190684 C 9.4406414,1.4072369 10.21706,0.74654556 10.71731,0.50037963 c 1.525526,-0.75068747 3.645286,-0.593065 5.074231,0.37731272 0.916613,0.62245985 1.715708,1.79186195 2.004159,2.93290085 0.557757,2.2063479 -0.225468,4.7750623 -2.163437,7.0953388 -0.550717,0.659359 -2.120079,2.195323 -2.807263,2.74752 -0.958441,0.77017 -3.5239703,2.441379 -3.7420638,2.437613 -0.041653,-7.2e-4 -0.4647159,-0.205566 -0.9401396,-0.455216 z m 0.3241526,-2.098145 c 0,-0.01842 -0.072934,-0.06883 -0.1620763,-0.112025 -0.1556386,-0.07542 -0.1565218,-0.07409 -0.022249,0.03348 0.1469679,0.117746 0.1843254,0.133664 0.1843254,0.07854 z m 3.2775428,-1.590605 c 0.783603,-0.645663 2.171528,-2.0362294 2.549026,-2.5538787 l 0.23639,-0.3241525 -0.274392,0.3241525 c -0.66414,0.7845827 -1.931505,2.0153217 -2.734043,2.6550337 -0.479228,0.381999 -0.965457,0.769696 -1.080508,0.86155 -0.115052,0.09185 -0.0309,0.04637 0.187001,-0.101081 0.217903,-0.147449 0.720339,-0.535179 1.116526,-0.861624 z m -4.4300852,0.877304 c 0,-0.01455 -0.129661,-0.11225 -0.2881356,-0.217124 -0.1584746,-0.104873 -0.2881356,-0.17518 -0.2881356,-0.156237 0,0.03164 0.512903,0.399805 0.5569755,0.399805 0.010613,0 0.019296,-0.0119 0.019296,-0.02644 z M 6.6661017,12.387532 c 0,-0.01711 -0.1053496,-0.100828 -0.2341102,-0.186038 l -0.2341101,-0.154926 0.2161017,0.18568 c 0.2216146,0.190417 0.2521186,0.209205 0.2521186,0.155284 z M 6.0112966,11.894122 C 5.9086751,11.806232 5.5388304,11.491208 5.1894196,11.194068 4.5422331,10.643699 3.7984103,9.846807 3.3572164,9.2311441 3.1098745,8.8859915 3.0004849,8.7824262 3.1289623,9.0150424 3.4452308,9.5876672 4.7235639,10.919503 5.765678,11.762115 c 0.3779471,0.305593 0.5668295,0.407107 0.2456186,0.132007 z M 14.733898,8.8169492 c 0.08463,-0.118856 0.137671,-0.2161017 0.117861,-0.2161017 -0.01981,0 -0.105262,0.097246 -0.189895,0.2161017 -0.08463,0.1188559 -0.13767,0.2161016 -0.117861,0.2161016 0.01981,0 0.105263,-0.097246 0.189895,-0.2161016 z M 2.9923729,8.6728814 c -0.042406,-0.079237 -0.09331,-0.1440678 -0.1131197,-0.1440678 -0.019809,0 -0.00132,0.064831 0.041086,0.1440678 0.042407,0.079237 0.09331,0.1440678 0.1131197,0.1440678 0.019809,0 0.00132,-0.064831 -0.041086,-0.1440678 z M 2.7042373,8.1686441 C 2.6233896,8.0101695 2.5410338,7.8805085 2.5212245,7.8805085 c -0.019809,0 0.030131,0.129661 0.1109789,0.2881356 0.080848,0.1584745 0.1632034,0.2881356 0.1830128,0.2881356 0.019809,0 -0.030131,-0.1296611 -0.1109789,-0.2881356 z M 15.805678,6.5838983 c -0.0012,-0.059428 -0.04592,0.0054 -0.09932,0.1440678 -0.126653,0.3288851 -0.124784,0.458284 0.0026,0.1800847 0.05442,-0.1188559 0.09795,-0.2647245 0.09672,-0.3241525 z M 2.1093489,5.017161 c -0.01386,-0.2674258 -0.0252,-0.048623 -0.0252,0.4862288 0,0.5348517 0.01134,0.7536547 0.0252,0.4862288 0.01386,-0.2674258 0.01386,-0.7050317 0,-0.9724576 z M 15.862113,6.2057203 c -0.01998,-0.049523 -0.03633,-0.009 -0.03633,0.090042 0,0.099047 0.01635,0.1395657 0.03633,0.090042 0.01998,-0.049523 0.01998,-0.1305615 0,-0.180084 z m 0.07592,-0.684322 c -0.0165,-0.1089513 -0.03001,-0.019809 -0.03001,0.1980932 0,0.2179026 0.01351,0.3070445 0.03001,0.1980932 0.01651,-0.1089512 0.01651,-0.2872351 0,-0.3961864 z m -7.56e-4,-0.8283898 c -0.01717,-0.089142 -0.03122,-0.016208 -0.03122,0.1620762 0,0.1782839 0.01405,0.2512183 0.03122,0.1620763 0.01717,-0.089142 0.01717,-0.2350106 0,-0.3241525 z m -5.764342,-0.067532 c -0.02299,-0.057464 -0.04006,-0.040395 -0.04352,0.04352 -0.0031,0.075936 0.0139,0.1184807 0.03783,0.094545 0.02394,-0.023936 0.0265,-0.086066 0.0057,-0.138065 z m 0.156768,-0.4907309 c 0,-0.068107 -0.02289,-0.054792 -0.06191,0.036017 -0.03405,0.079237 -0.06191,0.1926907 -0.06191,0.2521187 0,0.068107 0.02288,0.054792 0.06191,-0.036017 0.03405,-0.079237 0.06191,-0.1926907 0.06191,-0.2521187 z M 15.81045,4.0813476 C 15.668562,3.6426695 15.465766,3.283611 15.18099,2.9668595 14.915491,2.6715485 14.34259,2.2612493 14.19755,2.2625404 c -0.04177,3.745e-4 0.08767,0.094522 0.28764,0.2092217 0.633159,0.3631732 1.169925,1.1068771 1.304234,1.8070515 0.0266,0.1386652 0.06192,0.2118821 0.07848,0.162704 0.01657,-0.049178 -0.0093,-0.2112543 -0.05746,-0.3601695 z M 10.48169,3.7385588 c 0,-0.039619 -0.03142,-0.023411 -0.06983,0.036017 -0.0384,0.059428 -0.06983,0.1404661 -0.06983,0.1800847 0,0.039619 0.03142,0.023411 0.06983,-0.036017 0.03841,-0.059428 0.06983,-0.1404661 0.06983,-0.1800847 z M 2.5447258,3.3243644 c 0.085059,-0.1485699 0.1390619,-0.2701271 0.1200064,-0.2701271 -0.048161,0 -0.3200654,0.4533947 -0.3203951,0.5342514 -3.314e-4,0.082096 0.00988,0.068637 0.2003887,-0.2641243 z m 8.1119462,0.036017 c 0.06548,-0.1287606 0.102854,-0.2341102 0.08305,-0.2341102 -0.04149,0 -0.255819,0.399343 -0.255819,0.4766488 0,0.075213 0.03906,0.020378 0.172774,-0.2425386 z M 7.4138042,3.2523305 C 7.2573228,2.9873452 6.9792015,2.6707009 6.7816368,2.5326006 6.6283842,2.4254749 6.6940089,2.526639 6.9902542,2.8541955 c 0.437526,0.4837701 0.5197772,0.5610856 0.42355,0.398135 z M 2.920339,2.8021186 c 0.093049,-0.099047 0.1529732,-0.1800847 0.1331639,-0.1800847 -0.019809,0 -0.1121484,0.081038 -0.2051978,0.1800847 -0.093049,0.099047 -0.1529732,0.1800848 -0.1331639,0.1800848 0.019809,0 0.1121484,-0.081038 0.2051978,-0.1800848 z m 8.84447,-0.5346131 c 0.130032,-0.053387 0.222186,-0.1113014 0.204788,-0.1286993 -0.09119,-0.091192 -0.85565,0.4250682 -1.030187,0.6957157 -0.07598,0.1178239 0.0084,0.066499 0.235257,-0.1431256 0.194548,-0.1797532 0.460112,-0.3705041 0.590142,-0.4238908 z M 3.6824845,2.2796597 C 3.6495318,2.246707 3.2084746,2.4653773 3.2084746,2.5146675 c 0,0.018151 0.1130463,-0.020906 0.2512141,-0.086794 C 3.5978564,2.3619859 3.6981146,2.2952896 3.6824845,2.2796597 Z M 6.0703214,2.14631 C 6.0463854,2.122374 5.9842554,2.119815 5.9322564,2.14062 c -0.057464,0.022995 -0.040395,0.040064 0.04352,0.043521 0.075936,0.00313 0.1184807,-0.013897 0.094545,-0.037834 z M 5.4375116,2.0356438 c -0.237359,-0.038408 -0.559775,-0.038296 -0.7923729,2.738e-4 -0.352611,0.058474 -0.3122397,0.065006 0.4002003,0.064758 0.7181756,-2.521e-4 0.7548984,-0.00634 0.3921726,-0.065034 z m 6.9717934,0.038632 c -0.02394,-0.023936 -0.08607,-0.026495 -0.138066,-0.00569 -0.05746,0.022995 -0.0404,0.040064 0.04352,0.043521 0.07593,0.00313 0.118481,-0.013897 0.09455,-0.037834 z"
     id="path833"
     inkscape:connector-curvature="0" />
  <path
     style="fill:#ff453f;fill-opacity:0.94117647;stroke-width:0.0720339"
     d="M 8.1427966,15.635849 C 4.5567532,13.752781 1.7974414,11.210361 0.74156402,8.8163794 -0.07008476,6.9761354 -0.1953992,4.6686262 0.42722623,3.0282408 1.1291719,1.1788759 2.6300937,0.14736623 4.7572034,0.05246026 6.3403854,-0.01817711 7.465951,0.38772782 8.4693803,1.3911572 L 9.0169417,1.9387188 9.5883441,1.3559946 c 0.9817769,-1.00123068 1.9968369,-1.37346259 3.5615239,-1.30604454 1.409453,0.06072942 2.372939,0.47127559 3.319851,1.41460464 0.437794,0.4361373 0.614815,0.6820751 0.884979,1.2295131 0.185744,0.3763771 0.385431,0.8626059 0.443749,1.0805085 0.158518,0.5922893 0.212046,1.8184186 0.109888,2.5170856 -0.207611,1.419863 -1.069925,3.1686242 -2.275295,4.6142701 -0.617226,0.740263 -2.245216,2.314865 -2.988125,2.890133 -1.059214,0.820199 -3.3537749,2.298595 -3.5619788,2.295 -0.041653,-7.2e-4 -0.4647159,-0.205566 -0.9401396,-0.455216 z M 10.92529,12.58072 c 0.0896,-0.11425 0.08705,-0.116798 -0.0272,-0.0272 -0.06933,0.05438 -0.126059,0.111102 -0.126059,0.12606 0,0.05929 0.05915,0.02113 0.153256,-0.09886 z m 1.11999,-0.901037 c 0.07228,-0.08242 -0.119803,0.05476 -0.426848,0.304843 -0.307044,0.250082 -0.558263,0.468424 -0.558263,0.485203 0,0.04888 0.840632,-0.625297 0.985111,-0.790046 z m -5.8834156,0.351594 c 0,-0.01496 -0.056727,-0.07168 -0.1260593,-0.126059 -0.1142498,-0.0896 -0.1167977,-0.08705 -0.027197,0.0272 0.094103,0.119991 0.1532561,0.158149 0.1532561,0.09886 z M 5.8737288,11.818912 c 0,-0.0129 -0.089142,-0.102044 -0.1980932,-0.198093 L 5.4775424,11.446186 5.6521752,11.64428 c 0.1632206,0.185148 0.2215536,0.231127 0.2215536,0.174632 z M 5.4415254,11.459663 c 0,-0.0124 -0.1053496,-0.117746 -0.2341101,-0.23411 l -0.2341102,-0.21157 0.2115701,0.23411 c 0.197213,0.218224 0.2566502,0.267221 0.2566502,0.21157 z m 7.7076276,-0.805849 c 0.454322,-0.455615 0.809832,-0.8283903 0.790023,-0.8283903 -0.01981,0 -0.407735,0.3727753 -0.862057,0.8283903 -0.454322,0.455614 -0.809833,0.828389 -0.790023,0.828389 0.01981,0 0.407734,-0.372775 0.862057,-0.828389 z M 4.3601513,10.421868 C 4.0745175,10.116014 3.693295,9.6703045 3.51299,9.4314019 3.1529885,8.9544035 3.0073054,8.787434 3.1025726,8.9610169 c 0.1968791,0.3587267 1.6281459,2.0169491 1.7408958,2.0169491 0.019809,0 -0.1976834,-0.250244 -0.4833171,-0.556098 z M 14.157627,9.5733051 c 0.09305,-0.099047 0.152973,-0.1800848 0.133164,-0.1800848 -0.01981,0 -0.112148,0.081038 -0.205198,0.1800848 -0.09305,0.099047 -0.152973,0.1800847 -0.133164,0.1800847 0.01981,0 0.112148,-0.081038 0.205198,-0.1800847 z M 2.7042373,8.1686441 c -0.042406,-0.079237 -0.09331,-0.1440678 -0.1131197,-0.1440678 -0.019809,0 -0.00132,0.064831 0.041086,0.1440678 0.042407,0.079237 0.09331,0.1440678 0.1131197,0.1440678 0.019809,0 0.00132,-0.06483 -0.041086,-0.1440678 z M 15.808241,6.6199153 c 0.0022,-0.039619 -0.02746,-0.023411 -0.06587,0.036017 -0.03841,0.059428 -0.06805,0.1566737 -0.06587,0.2161017 0.0042,0.1140908 0.124235,-0.1156704 0.131736,-0.2521186 z M 2.1075268,5.5213983 C 2.0910221,5.412447 2.0775182,5.501589 2.0775182,5.7194915 c 0,0.2179026 0.013504,0.3070445 0.030009,0.1980932 0.016505,-0.1089512 0.016505,-0.2872351 -4e-7,-0.3961864 z M 15.936359,5.6668371 c -0.01826,-0.070087 -0.03441,-0.030185 -0.03587,0.088671 -0.0015,0.1188559 0.01347,0.1761995 0.03321,0.1274302 0.01973,-0.048769 0.02093,-0.146015 0.0027,-0.2161016 z m -0.0022,-0.9017947 c -0.01998,-0.049523 -0.03633,-0.009 -0.03633,0.090042 0,0.099047 0.01635,0.1395657 0.03633,0.090042 0.01998,-0.049523 0.01998,-0.1305614 0,-0.180084 z M 10.333664,4.1707627 c 0.0022,-0.039619 -0.02746,-0.023411 -0.06587,0.036017 -0.03841,0.059428 -0.06805,0.1566737 -0.06587,0.2161017 0.0042,0.1140908 0.124235,-0.1156704 0.131735,-0.2521187 z M 15.79158,4.0492055 c -0.02299,-0.057464 -0.04006,-0.040395 -0.04352,0.04352 -0.0031,0.075936 0.0139,0.1184807 0.03783,0.094545 0.02394,-0.023936 0.02649,-0.086066 0.0057,-0.138065 z M 15.670339,3.7163102 c 0,-0.032046 -0.04915,-0.1211883 -0.109221,-0.1980932 -0.10128,-0.1296602 -0.103059,-0.1254236 -0.02445,0.058266 0.08481,0.1982005 0.133676,0.2493119 0.133676,0.1398271 z M 10.62576,3.3783898 c 0,-0.039619 -0.03142,-0.023411 -0.06983,0.036017 -0.03841,0.059428 -0.06983,0.1404661 -0.06983,0.1800847 0,0.039619 0.03142,0.023411 0.06983,-0.036017 0.03841,-0.059428 0.06983,-0.1404661 0.06983,-0.1800847 z m -8.1376244,0.036017 c 0.042406,-0.079237 0.060895,-0.1440678 0.041086,-0.1440678 -0.019809,0 -0.070713,0.064831 -0.1131197,0.1440678 -0.042407,0.079237 -0.060895,0.1440678 -0.041086,0.1440678 0.019809,0 0.070713,-0.06483 0.1131197,-0.1440678 z M 7.209171,2.9562804 C 7.1036709,2.8179626 6.9302175,2.6487773 6.8237188,2.580313 6.6952352,2.4977155 6.7512681,2.587864 6.9902542,2.8482438 7.3921249,3.2860896 7.5021401,3.3403825 7.209171,2.9562804 Z m 8.100998,0.1481045 c 0,-0.012037 -0.121557,-0.1335946 -0.270127,-0.2701271 l -0.270127,-0.2482409 0.248241,0.2701272 c 0.231057,0.2514285 0.292013,0.3032473 0.292013,0.2482408 z M 2.884322,2.8381356 c 0.071709,-0.079237 0.114172,-0.1440678 0.094363,-0.1440678 -0.019809,0 -0.094688,0.06483 -0.1663965,0.1440678 -0.071709,0.079237 -0.1141719,0.1440678 -0.094363,0.1440678 0.019809,0 0.094688,-0.06483 0.1663965,-0.1440678 z m 8.881016,-0.5699875 c 0.12974,-0.05374 0.221786,-0.1118152 0.204545,-0.1290556 -0.06344,-0.063445 -0.592052,0.2607969 -0.801663,0.4917321 L 10.952119,2.868911 11.240783,2.6173843 c 0.158765,-0.1383397 0.394815,-0.2954959 0.524555,-0.3492362 z m -8.12466,0.024664 c 0,-0.019809 -0.06483,-0.00132 -0.1440678,0.041086 -0.079237,0.042407 -0.1440678,0.09331 -0.1440678,0.1131197 0,0.019809 0.064831,0.00132 0.1440678,-0.041086 0.079237,-0.042407 0.1440678,-0.09331 0.1440678,-0.1131197 z m 10.877119,0.1516711 c 0,-0.018415 -0.07293,-0.068826 -0.162077,-0.1120247 -0.155638,-0.075422 -0.156521,-0.074092 -0.02225,0.033483 0.146968,0.1177458 0.184326,0.133664 0.184326,0.078542 z M 5.3945603,2.0428318 c -0.1644961,-0.032549 -0.4562334,-0.03281 -0.6483051,-5.835e-4 -0.3083157,0.051736 -0.2732829,0.058668 0.2990838,0.05918 0.5319697,4.754e-4 0.5946359,-0.010039 0.3492213,-0.0586 z"
     id="path835"
     inkscape:connector-curvature="0" />
  <path
     style="fill:#ff453f;fill-opacity:0.94117647;stroke-width:0.0720339"
     d="M 8.1427966,15.637353 C 6.1513764,14.597498 4.4180755,13.34922 3.0283898,11.954092 1.9972238,10.918887 1.4341689,10.178775 0.93778731,9.2060842 0.30485578,7.9658146 0.03898305,6.8282477 0.03898305,5.3604464 c 0,-1.7463611 0.54632222,-3.1783798 1.56922835,-4.1132585 C 2.1170379,0.78214918 2.5941605,0.50844096 3.3165254,0.26718899 3.8393254,0.09258678 3.9963971,0.07440225 5.009322,0.07121026 6.0516189,0.0679257 6.1639764,0.08107301 6.6993718,0.26896845 7.4089001,0.51797534 8.1191349,0.98274464 8.621508,1.5267923 L 9.0041203,1.9411443 9.5819331,1.3575292 C 10.251856,0.68087889 10.910525,0.31269569 11.780508,0.12856821 c 0.729343,-0.1543615 2.001747,-0.09915533 2.701272,0.11720083 1.623334,0.50208142 2.839083,1.80499926 3.326326,3.56482416 0.15077,0.5445486 0.201068,1.7914291 0.100115,2.4818467 -0.183909,1.2577607 -0.843275,2.7085775 -1.867574,4.1092551 -0.461151,0.630602 -2.026464,2.24823 -2.855478,2.950913 -1.167847,0.989882 -3.8138256,2.747805 -4.1210704,2.737937 -0.031292,-10e-4 -0.4458783,-0.204941 -0.921302,-0.453192 z M 10.92529,12.58072 c 0.0896,-0.11425 0.08705,-0.116798 -0.0272,-0.0272 -0.06933,0.05438 -0.126059,0.111102 -0.126059,0.12606 0,0.05929 0.05915,0.02113 0.153256,-0.09886 z m 0.648305,-0.504237 c 0.0896,-0.11425 0.08705,-0.116798 -0.0272,-0.0272 -0.06933,0.05438 -0.126059,0.111101 -0.126059,0.126059 0,0.05929 0.05915,0.02113 0.153256,-0.09886 z m 0.36017,-0.288136 c 0.0896,-0.11425 0.08705,-0.116797 -0.0272,-0.0272 -0.119991,0.0941 -0.158149,0.153257 -0.09886,0.153257 0.01496,0 0.07168,-0.05673 0.126059,-0.12606 z m -6.1320701,-0.0452 c 0,-0.01496 -0.056727,-0.07169 -0.1260593,-0.126059 -0.1142498,-0.0896 -0.1167976,-0.08705 -0.027197,0.0272 0.094103,0.11999 0.1532561,0.158149 0.1532561,0.09886 z M 5.4415254,11.457351 c 0,-0.01367 -0.072934,-0.0866 -0.1620762,-0.162076 l -0.1620763,-0.137224 0.1372237,0.162076 c 0.1289564,0.152311 0.1869288,0.194869 0.1869288,0.137224 z m 7.6716106,-0.76752 c 0.394699,-0.396187 0.701428,-0.7203395 0.681619,-0.7203395 -0.01981,0 -0.358954,0.3241525 -0.753653,0.7203395 -0.3947,0.396186 -0.701429,0.720338 -0.68162,0.720338 0.01981,0 0.358954,-0.324152 0.753654,-0.720338 z m -8.3919496,0.12267 c 0,-0.01177 -0.1377648,-0.149534 -0.306144,-0.306144 L 4.1088983,10.22161 4.3936446,10.527754 C 4.6584557,10.812465 4.7211864,10.867 4.7211864,10.812501 Z M 4.0008475,10.018065 c 0,-0.0129 -0.089142,-0.102045 -0.1980933,-0.1980935 L 3.604661,9.645339 3.7792938,9.8434322 C 3.9425145,10.02858 4.0008475,10.074559 4.0008475,10.018065 Z M 14.166816,9.5552966 c 0.0896,-0.1142501 0.08705,-0.1167979 -0.0272,-0.027197 -0.06933,0.054375 -0.12606,0.1111015 -0.12606,0.1260593 0,0.059287 0.05915,0.021128 0.153257,-0.098862 z M 3.640678,9.5844696 c 0,-0.013669 -0.072934,-0.086604 -0.1620763,-0.1620763 L 3.3165254,9.2851695 3.4537491,9.4472458 C 3.5827055,9.5995571 3.640678,9.6421147 3.640678,9.5844696 Z M 15.607244,3.6112994 c -0.07114,-0.070612 -0.07942,-0.062338 -0.04032,0.040324 0.02705,0.071041 0.06733,0.1110202 0.08951,0.088842 0.02218,-0.022178 4.6e-5,-0.080303 -0.04918,-0.129166 z M 7.1342111,2.8804101 C 7.0310711,2.7451865 6.8916566,2.6136235 6.8244012,2.5880479 c -0.067255,-0.025576 0.00585,0.085062 0.1624637,0.2458611 0.3476617,0.3569605 0.3957112,0.3721245 0.1473462,0.046501 z m 8.1759579,0.223321 c 0,-0.012397 -0.105349,-0.1177466 -0.23411,-0.2341101 l -0.23411,-0.2115702 0.21157,0.2341102 c 0.197213,0.2182235 0.25665,0.2672207 0.25665,0.2115701 z M 2.9295273,2.7841102 C 3.0191283,2.6698604 3.0165803,2.6673125 2.9023303,2.7569132 2.78234,2.8510162 2.7441814,2.9101693 2.8034673,2.9101693 c 0.014958,0 0.071685,-0.056727 0.12606,-0.1260591 z M 11.357494,2.4959746 c 0.0896,-0.1142498 0.08705,-0.1167977 -0.0272,-0.027197 -0.119991,0.094103 -0.158149,0.1532561 -0.09886,0.1532561 0.01496,0 0.07169,-0.056727 0.12606,-0.1260591 z M 5.2778425,2.0652264 c -0.1494536,-0.015594 -0.3763604,-0.015332 -0.5042373,5.835e-4 -0.1278769,0.015911 -0.0056,0.028669 0.2717338,0.02835 0.2773305,-3.169e-4 0.3819571,-0.013339 0.2325035,-0.028934 z"
     id="path837"
     inkscape:connector-curvature="0" />
  <path
     style="fill:#ff453f;fill-opacity:0.94117647;stroke-width:0.0720339"
     d="M 8.036852,15.583018 C 4.8726101,13.931288 2.1788628,11.539153 0.98549508,9.3211864 -0.19889384,7.1199071 -0.28963433,4.1500514 0.77016746,2.2737053 1.0757916,1.7326072 1.9146859,0.91260877 2.4521186,0.62963953 3.3018253,0.18225173 3.8413687,0.06479772 5.045339,0.06511751 5.7410219,0.06530263 6.2284676,0.09902652 6.4139831,0.15980801 7.306787,0.45232241 7.8962779,0.807916 8.546731,1.4463277 L 9.0226993,1.9134844 9.5912225,1.3486102 C 10.173197,0.7703715 10.681132,0.45132411 11.420339,0.19969433 c 0.621978,-0.21172447 2.296853,-0.19340694 3.025424,0.033088 1.651324,0.51335649 2.883069,1.81172677 3.35241,3.53374267 0.149824,0.5497073 0.210388,1.8707792 0.115953,2.5292377 -0.193357,1.3481915 -1.019064,3.0615552 -2.15231,4.4661013 -0.673128,0.834275 -2.484844,2.564743 -3.412533,3.259493 -1.220513,0.914048 -3.0638847,2.075166 -3.2856598,2.0696 -0.031031,-7.78e-4 -0.4930778,-0.229351 -1.0267712,-0.507939 z m 4.689286,-4.51501 c 0.0896,-0.11425 0.08705,-0.116797 -0.0272,-0.0272 -0.06933,0.05438 -0.12606,0.111102 -0.12606,0.12606 0,0.05929 0.05915,0.02113 0.153257,-0.09886 z M 4.6491525,10.737012 c 0,-0.01367 -0.072934,-0.0866 -0.1620762,-0.162076 L 4.325,10.437712 4.4622237,10.599788 c 0.1289564,0.152311 0.1869288,0.194869 0.1869288,0.137224 z m 8.7252905,-0.317309 c 0.0896,-0.11425 0.08705,-0.116798 -0.0272,-0.0272 -0.119991,0.0941 -0.158149,0.153257 -0.09886,0.153257 0.01496,0 0.07168,-0.05673 0.126059,-0.12606 z M 3.9288136,9.9422944 c 0,-0.014958 -0.056727,-0.071684 -0.1260594,-0.1260593 -0.1142498,-0.089601 -0.1167976,-0.087053 -0.027197,0.027197 0.094103,0.1199905 0.1532561,0.1581489 0.1532564,0.098862 z M 7.1578094,2.9150981 C 7.065654,2.798953 6.9416314,2.6835114 6.8822034,2.6585615 c -0.059428,-0.02495 0.00366,0.070078 0.14019,0.2111731 0.3011934,0.3112586 0.3627528,0.3318806 0.135416,0.045363 z"
     id="path839"
     inkscape:connector-curvature="0" />
  <path
     style="fill:#ff453f;fill-opacity:0.94117647;stroke-width:0.0720339"
     d="M 8.356818,15.758892 C 6.1541562,14.622219 4.16251,13.180594 2.7741781,11.717976 1.5787393,10.458572 0.88850669,9.3646178 0.44382058,8.0245763 0.10514477,7.0039922 0.01156333,6.2821527 0.05741567,5.0440461 0.10016712,3.8896697 0.2812084,3.1722074 0.74128244,2.3338983 1.1054945,1.6702609 1.8989512,0.90660164 2.5672506,0.57650217 3.2959899,0.21654909 3.7560345,0.10285444 4.6851695,0.05308328 6.3751909,-0.03744645 7.4027974,0.33353138 8.5434383,1.4459632 L 9.0161133,1.9069489 9.5879299,1.3460427 C 10.171798,0.77331458 10.692888,0.44732211 11.420339,0.19969433 c 0.32071,-0.10917117 0.602032,-0.13407642 1.476695,-0.13073063 0.97466,0.0037283 1.136961,0.02306692 1.65678,0.19740938 0.756222,0.25363027 1.225151,0.5312402 1.790193,1.05980882 1.085029,1.014991 1.623316,2.3363201 1.62836,3.9971232 0.0037,1.2205012 -0.22785,2.0942199 -0.911061,3.4376543 -0.5759,1.132424 -1.152044,1.8985476 -2.363425,3.1427456 -1.167068,1.198686 -2.086261,1.974361 -3.408338,2.876179 -0.884144,0.603095 -2.0782942,1.312489 -2.2093628,1.312489 -0.042425,0 -0.3679383,-0.150067 -0.7233622,-0.333481 z M 7.2423729,3.0293847 c 0,-0.013669 -0.072934,-0.086603 -0.1620763,-0.1620762 L 6.9182203,2.7300847 7.0554441,2.892161 c 0.1289566,0.1523117 0.1869288,0.1948691 0.1869288,0.1372237 z"
     id="path841"
     inkscape:connector-curvature="0" />
  <path
     style="fill:#ff453f;fill-opacity:0.94117647;stroke-width:0.0720339"
     d="M 8.2723532,15.723593 C 4.524957,13.765663 1.7736005,11.213691 0.68636934,8.6873494 0.18303317,7.5177739 0.07570833,6.9442372 0.0770815,5.4313559 0.07846128,3.9111947 0.14565882,3.559763 0.62623689,2.5593667 0.85003836,2.0934898 1.0413477,1.8298099 1.4678941,1.3993184 2.4789501,0.37891101 3.6421578,-0.02432145 5.3694915,0.04680774 6.7005873,0.1016204 7.6305636,0.51323083 8.5691321,1.4629793 L 8.9954683,1.8943933 9.5851861,1.3361761 C 10.585612,0.38918998 11.475818,0.03262478 12.846045,0.03006433 c 0.893007,-0.0016687 1.650659,0.16233576 2.389391,0.51721769 0.855994,0.41121313 1.717267,1.27257028 2.146575,2.14678578 0.467583,0.9521535 0.554324,1.369356 0.554138,2.6652542 -1.44e-4,0.9543429 -0.02478,1.2035131 -0.169653,1.7153808 -0.221671,0.7832086 -0.956256,2.2597833 -1.529727,3.0748732 -0.592184,0.841687 -2.817354,3.079904 -3.771938,3.794055 -1.295583,0.96926 -3.1602998,2.148742 -3.3970817,2.148742 -0.049262,0 -0.4071903,-0.165951 -0.7953961,-0.36878 z"
     id="path843"
     inkscape:connector-curvature="0" />
  <path
     style="fill:#ff453f;fill-opacity:0.94117647;stroke-width:0.0720339"
     d="M 8.0347458,15.60018 C 4.2796418,13.552692 1.7586675,11.17568 0.67400487,8.6597827 0.1807677,7.5157094 0.07803886,6.9590876 0.07817356,5.4313559 0.07830762,3.9109565 0.14510679,3.5609121 0.62623689,2.5593667 1.1461466,1.4770956 2.2166782,0.57833304 3.4245763,0.21002681 4.0150425,0.0299848 5.5537411,-0.01534759 6.2241805,0.12754623 7.03849,0.30110374 7.742443,0.68608355 8.4223883,1.3297085 L 9.0082219,1.8842491 9.5905058,1.3316597 C 10.582,0.39072766 11.477692,0.03262128 12.846045,0.03006433 c 0.892905,-0.0016685 1.650067,0.16221374 2.392091,0.51775005 0.490195,0.23487412 0.728463,0.40988271 1.194893,0.87765302 0.644114,0.645964 0.991455,1.2059986 1.300583,2.0969902 0.186735,0.5382223 0.200066,0.654747 0.201909,1.7648305 0.0017,1.0362933 -0.01984,1.2652786 -0.168272,1.7874147 -0.224202,0.7886501 -0.960408,2.2655777 -1.531607,3.0726092 -0.537693,0.759692 -2.257183,2.552237 -3.230557,3.367811 -1.095727,0.918091 -3.6592495,2.578756 -3.9774787,2.576633 -0.05084,-3.6e-4 -0.4976275,-0.221549 -0.9928605,-0.491576 z"
     id="path845"
     inkscape:connector-curvature="0" />
  <path
     style="fill:#ff453f;fill-opacity:0.94117647;stroke-width:0.0720339"
     d="M 8.0324162,15.600931 C 5.9068713,14.4425 4.46019,13.389139 3.0238322,11.954072 1.5314689,10.463048 0.70287044,9.1319491 0.27309902,7.5351643 0.10259444,6.9016671 0.08446609,6.7075009 0.08003938,5.4673729 0.074458,3.9037671 0.13771213,3.5658298 0.62435161,2.5593667 1.1484252,1.4754827 2.2183708,0.57781693 3.4245763,0.21002681 4.0150425,0.0299848 5.5537411,-0.01534759 6.2241805,0.12754623 7.03849,0.30110374 7.742443,0.68608355 8.4223883,1.3297085 L 9.0082219,1.8842491 9.5905058,1.3316597 C 10.579726,0.39288557 11.478177,0.03263891 12.836672,0.03006433 c 1.518868,-0.0028785 2.633213,0.42949272 3.596357,1.39540307 1.003464,1.0063471 1.452852,2.0415237 1.522722,3.5076353 0.06736,1.4134489 -0.134877,2.3193336 -0.826855,3.7037617 -0.697945,1.3963666 -1.32753,2.2049466 -2.94461,3.7817796 -1.157416,1.128611 -1.916137,1.730795 -3.376235,2.679665 -1.0970635,0.712946 -1.593771,0.994064 -1.7564106,0.994064 -0.064627,0 -0.5232773,-0.221149 -1.0192242,-0.491442 z"
     id="path847"
     inkscape:connector-curvature="0" />
  <path
     style="fill:#ff453f;fill-opacity:0.94117647;stroke-width:0.0720339"
     d="M 7.9326932,15.546329 C 5.8453874,14.407133 4.4873675,13.412269 3.0262963,11.951978 1.2632144,10.189837 0.35413527,8.5483506 0.10484326,6.6768316 -0.00151043,5.8783986 0.05852355,4.1783785 0.21369206,3.5944915 0.64390032,1.9756513 1.8689699,0.68435452 3.4245763,0.21002681 4.0177048,0.02917305 5.5529454,-0.01527574 6.2338983,0.1286904 7.0576233,0.30284121 7.72066,0.66546424 8.4121155,1.3199846 L 9.0082219,1.8842491 9.5905058,1.3316597 C 10.67106,0.30620863 11.546708,-0.0120525 13.113136,0.05133147 c 1.532462,0.06200958 2.347903,0.40607893 3.350906,1.41388873 1.007243,1.0120705 1.421479,1.9876512 1.491637,3.5130046 0.06463,1.4051468 -0.129252,2.2631024 -0.826783,3.6586396 -0.405926,0.8121303 -0.855605,1.5118756 -1.388738,2.1610166 -0.55301,0.673344 -2.341502,2.419786 -3.059226,2.987299 -1.113839,0.880726 -3.3490387,2.307193 -3.6152529,2.307193 -0.07287,0 -0.5827132,-0.24572 -1.1329859,-0.546044 z"
     id="path849"
     inkscape:connector-curvature="0" />
  <path
     style="fill:#ff453f;fill-opacity:0.94117647;stroke-width:0.0720339"
     d="M 8.2095656,15.703574 C 5.9808776,14.516092 4.2383784,13.242443 2.8107475,11.757405 1.2560216,10.140161 0.35548026,8.4676899 0.10618999,6.7345437 -0.02440352,5.8266154 0.05448095,4.0941093 0.25572255,3.4504237 0.75704749,1.8469003 1.9045291,0.67351196 3.4245763,0.21002681 3.661844,0.13768032 4.199019,0.07318541 4.7637607,0.04924012 6.3838439,-0.01945208 7.3382522,0.30848002 8.3855076,1.2936626 8.698881,1.5884617 8.9795661,1.829661 9.0092528,1.829661 c 0.029687,0 0.3006918,-0.2351892 0.6022343,-0.5226427 1.0420299,-0.99334301 1.9488289,-1.31852017 3.5016489,-1.25568683 1.532462,0.06200958 2.347903,0.40607893 3.350906,1.41388873 0.676598,0.679841 1.021095,1.2507064 1.306671,2.1652883 0.149672,0.4793358 0.168421,0.6783359 0.166272,1.7648305 -0.0024,1.1896363 -0.0091,1.2437607 -0.234768,1.8969515 -0.400573,1.1592012 -1.197789,2.6017318 -1.917462,3.4695735 -0.530469,0.639685 -2.252963,2.328956 -2.946673,2.889839 -1.170335,0.946247 -3.4826257,2.441977 -3.7714125,2.439578 -0.072325,-5.76e-4 -0.4580217,-0.175069 -0.8571039,-0.387707 z"
     id="path851"
     inkscape:connector-curvature="0" />
  <path
     style="fill:#ff453f;fill-opacity:0.94117647;stroke-width:0.0720339"
     d="M 8.1067797,15.649187 C 6.0554196,14.556942 4.4671039,13.402233 3.0268753,11.956088 1.2830536,10.205101 0.37094193,8.5753122 0.10673883,6.7382973 -0.02485593,5.8233134 0.05298806,4.0881648 0.25424276,3.4504237 0.76653911,1.827046 1.9060119,0.67133486 3.4605932,0.19838059 3.8009806,0.09482364 4.1376392,0.06667145 5.045339,0.06586037 6.057389,0.06495605 6.2549564,0.08466666 6.6661017,0.22755825 7.3539094,0.46660264 7.8324119,0.76625166 8.4245939,1.3287669 8.7146154,1.6042587 8.9816623,1.829661 9.0180322,1.829661 c 0.036369,0 0.2433032,-0.1822133 0.4598522,-0.4049185 0.4941245,-0.50817144 1.2010446,-0.97550061 1.8026696,-1.19170419 0.40977,-0.14725804 0.594297,-0.16666937 1.580463,-0.16625704 1.256678,5.2513e-4 1.618341,0.07656175 2.485169,0.5224846 0.353734,0.18197147 0.690335,0.44560773 1.127727,0.88327143 0.525265,0.5255906 0.674535,0.7305325 0.947503,1.3008815 0.457732,0.9564023 0.518509,1.2701397 0.514897,2.6579371 -0.003,1.1502185 -0.01068,1.2106344 -0.238184,1.8728814 -0.40625,1.1825502 -1.172227,2.562889 -1.918705,3.4576267 -0.765917,0.918037 -2.409252,2.507732 -3.268546,3.161856 -1.204406,0.916836 -3.1899115,2.169452 -3.4358309,2.167598 -0.076933,-5.77e-4 -0.512653,-0.199539 -0.9682674,-0.442131 z"
     id="path853"
     inkscape:connector-curvature="0" />
  <path
     style="fill:#ff453f;fill-opacity:0.94117647;stroke-width:0.0720339"
     d="M 8.1788136,15.688274 C 4.6657611,13.821502 2.0441247,11.453999 0.84908787,9.0690678 0.21199083,7.7976155 -9.1002797e-4,6.7118855 0.06010652,5.0455007 0.1054282,3.8077485 0.19049696,3.4293674 0.61762682,2.5656812 1.1497207,1.4897507 2.0865168,0.67477121 3.2604519,0.26651697 3.779426,0.08603562 3.9084482,0.0714082 5.009322,0.06824532 6.0625148,0.06521943 6.2512076,0.08336379 6.6661017,0.22755825 7.3468472,0.46414813 7.8057363,0.75036185 8.4251644,1.3247036 9.0473623,1.9016131 9.0265423,1.9009556 9.5474576,1.360142 9.9886047,0.90214332 10.606551,0.49046941 11.188026,0.26720041 11.5928,0.1117794 11.826442,0.07576961 12.608898,0.04821031 c 1.158389,-0.04080021 1.772925,0.07456571 2.629238,0.49358247 0.494229,0.24183987 0.732507,0.42060222 1.235777,0.92711522 0.523123,0.5264926 0.675648,0.7364873 0.947503,1.3045108 0.458783,0.9585993 0.518836,1.2697619 0.512961,2.6579371 -0.0046,1.0961356 -0.02056,1.2361716 -0.204738,1.8008475 -0.267939,0.8214782 -0.865396,2.0070099 -1.41819,2.8141106 -0.891106,1.301049 -2.691829,3.076021 -4.331246,4.269307 -1.021658,0.743638 -2.706498,1.777032 -2.8950222,1.77566 -0.082506,-5.76e-4 -0.4903715,-0.181954 -0.9063672,-0.403007 z"
     id="path855"
     inkscape:connector-curvature="0" />
  <path
     style="fill:#ff453f;fill-opacity:0.94117647;stroke-width:0.0720339"
     d="M 8.207192,15.706155 C 6.0842851,14.588896 4.2480684,13.250685 2.8412838,11.795549 1.9619296,10.885972 1.382125,10.103021 0.92225486,9.2041501 0.21305156,7.8179276 -0.00321225,6.77476 0.06010652,5.0455007 0.10550637,3.8056137 0.18956495,3.4331357 0.623276,2.55 1.162642,1.4517264 2.2836083,0.5210902 3.4966102,0.1645325 3.7060765,0.1029606 4.2412788,0.06846735 5.009322,0.06703974 6.0606178,0.06508565 6.2519549,0.0836235 6.6661017,0.22755825 7.3331752,0.4593964 7.7940791,0.74295338 8.3843918,1.2846831 c 0.2834469,0.2601192 0.5730578,0.472944 0.6435797,0.472944 0.070522,0 0.3053978,-0.1800513 0.5219468,-0.400114 0.4998657,-0.50797621 1.0147127,-0.85101543 1.6341447,-1.08882089 0.409213,-0.15710057 0.640216,-0.19284641 1.424835,-0.2204819 1.159211,-0.04082916 1.773817,0.07471738 2.629238,0.49429916 0.792334,0.38863801 1.710027,1.27980843 2.104324,2.04350743 0.456813,0.8847794 0.571038,1.3340369 0.614208,2.4157284 0.05735,1.436908 -0.107213,2.1886698 -0.7824,3.574267 -1.169018,2.3990167 -3.742727,4.9509527 -6.99723,6.9380317 -0.5209626,0.318081 -1.0135045,0.577633 -1.0945369,0.576783 -0.081032,-8.5e-4 -0.4749216,-0.173952 -0.8753091,-0.384672 z"
     id="path857"
     inkscape:connector-curvature="0" />
  <path
     style="fill:#ff453f;fill-opacity:0.94117647;stroke-width:0.0720339"
     d="M 8.207192,15.706155 C 4.8036554,13.914916 2.1243228,11.535815 0.95005065,9.2622072 0.2756121,7.9563703 0.11342321,7.3223048 0.06227706,5.7915254 0.01018401,4.2324062 0.11418524,3.6029617 0.58347272,2.6371037 1.1391509,1.4934419 2.0968577,0.64313399 3.2805085,0.24251822 3.868002,0.04367649 5.3764373,-0.03431707 6.1305691,0.09515599 6.8651837,0.22127825 7.6809275,0.64343815 8.3575822,1.2476693 c 0.3140952,0.2804768 0.6133853,0.5099578 0.665089,0.5099578 0.051704,0 0.3330055,-0.2216023 0.6251152,-0.4924496 0.9910256,-0.91889188 1.5884676,-1.16405688 2.9611116,-1.2151164 1.158838,-0.04310639 1.771214,0.07158964 2.629238,0.49244837 0.830045,0.4071356 1.711224,1.27799063 2.140619,2.11554133 0.499731,0.9747413 0.560498,1.2675628 0.56058,2.7012712 6.8e-5,1.196604 -0.01036,1.2913864 -0.205466,1.8672188 -0.708005,2.0896076 -1.955352,3.8413102 -4.086194,5.7384182 -0.97296,0.866235 -1.552076,1.307295 -2.731573,2.080395 C 9.7889318,15.784156 9.244048,16.09281 9.0704686,16.090827 8.996054,16.089977 8.6075795,15.916875 8.207192,15.706155 Z"
     id="path859"
     inkscape:connector-curvature="0" />
  <path
     style="fill:#ff453f;fill-opacity:0.94117647;stroke-width:0.0720339"
     d="M 8.207192,15.706155 C 6.1794823,14.638997 4.6184302,13.529524 3.1818013,12.134503 1.6141086,10.612215 0.67112964,9.1252218 0.24843459,7.5088481 0.0342827,6.6899375 -0.02462953,4.8774052 0.13340364,3.9697308 0.43340655,2.2466435 1.6634987,0.78980768 3.2805085,0.24251822 3.868002,0.04367649 5.3764373,-0.03431707 6.1305691,0.09515599 6.8597267,0.22034135 7.6760717,0.64191337 8.3588983,1.2458962 8.6758475,1.5262484 8.972339,1.7560773 9.0177679,1.7566273 9.0631968,1.7571747 9.3467143,1.5338687 9.6478059,1.2603861 10.66683,0.33480384 11.238772,0.10102698 12.608898,0.0500611 c 1.158838,-0.04310639 1.771214,0.07158964 2.629238,0.49244837 1.153505,0.56579183 2.159209,1.78896433 2.568594,3.12401593 0.192723,0.6284895 0.189515,2.7612429 -0.0051,3.3849125 -0.36216,1.1606469 -1.049106,2.45565 -1.863007,3.5120671 -0.62594,0.812448 -2.152882,2.344064 -3.078966,3.088388 -1.252409,1.006602 -3.4721219,2.441965 -3.7716835,2.438934 -0.084048,-8.5e-4 -0.4804042,-0.173952 -0.8807916,-0.384672 z"
     id="path861"
     inkscape:connector-curvature="0" />
  <path
     style="fill:#ff453f;fill-opacity:0.94117647;stroke-width:0.0720339"
     d="M 8.0626618,15.631757 C 6.6878299,14.910075 5.2650223,13.964467 4.1449153,13.027996 3.4622115,12.457219 2.2582345,11.222585 1.8159046,10.639683 1.0935258,9.6877317 0.45845376,8.4167072 0.21467855,7.4350112 0.04054612,6.7337704 -0.00438769,4.7576321 0.13554167,3.954661 0.4335662,2.244476 1.6636125,0.79220922 3.2805085,0.24152361 3.9291909,0.02059406 5.6077325,-0.040393 6.3337892,0.13058767 7.0087609,0.28953824 7.6806574,0.6576913 8.3881196,1.2562196 8.7140852,1.5319938 9.0029368,1.7571169 9.0300108,1.7564934 9.0570854,1.7558667 9.3547669,1.5109738 9.6915254,1.21228 10.771271,0.25458099 11.588816,-0.01897637 13.17812,0.04563647 c 1.457845,0.05926843 2.288925,0.41783534 3.288748,1.41892063 0.651451,0.6522734 1.076739,1.3461202 1.327603,2.1659514 0.160957,0.5260108 0.22608,2.1658732 0.114426,2.8813559 -0.169232,1.0844473 -0.997212,2.7887095 -1.965259,4.0451646 -0.629386,0.816897 -2.1535,2.346753 -3.083971,3.095587 -1.264936,1.018009 -3.4691648,2.441171 -3.7767308,2.438449 -0.081272,-7.2e-4 -0.5403947,-0.207407 -1.0202744,-0.459308 z"
     id="path863"
     inkscape:connector-curvature="0" />
  <path
     style="fill:#ff453f;fill-opacity:0.94117647;stroke-width:0.0720339"
     d="M 8.0707627,15.635752 C 5.0244386,14.035755 2.3484971,11.71367 1.1128242,9.5979061 0.6884759,8.8713211 0.27684386,7.7860893 0.15045024,7.0606914 0.01101488,6.2604441 0.00896704,4.656134 0.14639357,3.8826271 0.30666115,2.9805591 0.79054477,2.072048 1.4726533,1.3925208 2.4648606,0.40406817 3.217168,0.09943345 4.7932203,0.04791078 6.4375736,-0.00584471 7.1987751,0.2500084 8.3881196,1.2562196 8.7140852,1.5319938 9.0029368,1.7563525 9.0300108,1.7547946 9.0570854,1.7532365 9.3547669,1.5084335 9.6915254,1.2107873 10.775678,0.25255209 11.594487,-0.02055703 13.17812,0.04785275 c 1.423604,0.06149686 2.233694,0.39132304 3.188306,1.29811035 0.846047,0.8036621 1.37439,1.7850795 1.543337,2.8668096 0.0491,0.3143634 0.06875,0.9345173 0.04775,1.5067188 -0.04107,1.1190893 -0.179205,1.6284985 -0.771562,2.845339 -0.848544,1.7431055 -2.393375,3.5409465 -4.46904,5.2009705 -1.184961,0.94768 -3.3419231,2.327849 -3.6339788,2.325264 -0.081272,-7.2e-4 -0.5367498,-0.20561 -1.0121735,-0.455313 z"
     id="path865"
     inkscape:connector-curvature="0" />
  <path
     style="fill:#ff453f;fill-opacity:0.94117647;stroke-width:0.0720339"
     d="M 8.0707627,15.635752 C 4.7465642,13.889809 1.9733769,11.373448 0.84093522,9.0754817 0.17136796,7.7167869 4.3185551e-4,6.837082 0.05816255,5.0470246 0.08399223,4.2461228 0.13402711,3.7589477 0.21844089,3.4864407 0.69881464,1.9356847 1.9329373,0.64510818 3.3525424,0.20897258 3.9506926,0.02520697 5.6918931,-0.02057383 6.3337892,0.13058767 6.9924963,0.28570806 7.6689814,0.65059802 8.354505,1.2205436 8.6636651,1.4775801 8.9425789,1.7039299 8.9743142,1.7235431 9.0060487,1.7431564 9.3181687,1.514704 9.6679134,1.2158712 10.731451,0.30715174 11.483976,0.02881356 12.877284,0.02881356 c 1.474695,0 2.485526,0.37451977 3.443723,1.27592164 0.88538,0.8329025 1.417115,1.8064219 1.588367,2.9080375 0.125881,0.8097525 0.04917,2.359239 -0.147694,2.9834137 -0.227473,0.7212092 -0.854215,1.9815676 -1.364563,2.7440911 -0.802556,1.1991195 -2.544502,2.9818345 -3.968303,4.0611785 -1.213596,0.919994 -3.0900076,2.091873 -3.3458778,2.089609 -0.081272,-7.2e-4 -0.5367498,-0.20561 -1.0121735,-0.455313 z"
     id="path867"
     inkscape:connector-curvature="0" />
  <path
     style="fill:#ff453f;fill-opacity:0.94117647;stroke-width:0.0720339"
     d="M 8.063313,15.632098 C 6.0458806,14.573096 4.5425213,13.476281 3.0245648,11.955947 1.2897687,10.218434 0.45188548,8.7838121 0.14448073,7.0246744 0.02185858,6.3229634 0.00616856,4.6678622 0.1157366,3.9925266 0.27731488,2.9966198 0.83137034,1.9716347 1.5935123,1.2586883 2.5342472,0.37867691 3.2519491,0.10432559 4.7572034,0.04932423 5.3535192,0.0275351 5.9423175,0.04492209 6.1978814,0.09186685 6.8104634,0.20439266 7.6882389,0.66236747 8.3496203,1.2145252 8.6614673,1.4748718 8.9417375,1.7034098 8.9724442,1.7223873 9.00315,1.7413649 9.31527,1.5143521 9.6660434,1.2179146 10.860774,0.20825189 11.494441,-0.00658189 13.113136,0.04923795 c 1.510309,0.05208224 2.256552,0.3499221 3.256421,1.29969945 0.625423,0.594091 1.088729,1.3078269 1.364133,2.1014863 0.189253,0.5453884 0.200123,0.6457575 0.202843,1.8728814 0.0026,1.1602936 -0.01478,1.3534087 -0.165028,1.8368644 -0.22959,0.7387494 -0.847757,1.9920629 -1.367867,2.7733051 -0.748262,1.1239424 -2.252421,2.6968574 -3.650672,3.8175454 -1.107584,0.88772 -3.3892474,2.34253 -3.6700298,2.340045 -0.081272,-7.2e-4 -0.5401022,-0.207254 -1.0196232,-0.458967 z"
     id="path869"
     inkscape:connector-curvature="0" />
  <path
     style="fill:#ff453f;fill-opacity:0.94117647;stroke-width:0.0720339"
     d="M 8.0707627,15.63676 C 6.0481182,14.579212 4.5597202,13.493545 3.0245648,11.955963 1.2801009,10.208741 0.45298252,8.7950076 0.14629843,7.036351 0.02187821,6.3228726 0.0053138,4.6731306 0.1157366,3.9925266 0.27731488,2.9966198 0.83137034,1.9716347 1.5935123,1.2586883 2.5342472,0.37867691 3.2519491,0.10432559 4.7572034,0.04932423 5.3535192,0.0275351 5.9423175,0.04492209 6.1978814,0.09186685 6.8033318,0.20308266 7.6808295,0.6584692 8.3588983,1.2133489 8.6758475,1.4727158 8.973529,1.6850755 9.020413,1.6852592 9.0672962,1.6854465 9.3708795,1.4612081 9.6950421,1.1869597 10.768022,0.27919531 11.448378,0.03081184 12.861017,0.03112907 c 0.455614,1.0229e-4 1.051111,0.047373 1.323327,0.10504596 1.539316,0.32612706 2.988786,1.68088437 3.545952,3.31424867 0.170722,0.5004798 0.200627,0.7183801 0.227384,1.6567797 0.02273,0.7971251 0.0018,1.2174101 -0.07985,1.6024987 -0.22547,1.063607 -0.968951,2.5788602 -1.832629,3.7349979 -0.570498,0.763679 -2.325414,2.540903 -3.184188,3.224664 -1.24174,0.988681 -3.4895764,2.425167 -3.7887022,2.421181 -0.075429,-10e-4 -0.5261284,-0.205208 -1.0015521,-0.453785 z"
     id="path871"
     inkscape:connector-curvature="0" />
  <path
     style="fill:#ff453f;fill-opacity:0.94117647;stroke-width:0.0720339"
     d="M 8.0707627,15.63676 C 6.0488742,14.579608 4.5601536,13.493798 3.024131,11.955963 1.4977507,10.427781 0.77339314,9.3023964 0.28041986,7.6932484 0.09266997,7.0804007 0.08382886,6.982211 0.07999961,5.4673729 0.07608622,3.9192486 0.08055172,3.8697155 0.27323763,3.3238976 0.55356914,2.5298076 0.8656682,2.0138742 1.41645,1.4340442 1.9588198,0.86306976 2.5927745,0.455404 3.2805085,0.23535778 3.8733099,0.04568603 5.617355,-0.0350931 6.2550891,0.09758381 6.8447973,0.22026922 7.6856414,0.6657912 8.3588983,1.212289 c 0.3169492,0.2572748 0.6094738,0.469017 0.6500541,0.4705383 0.040581,0.00152 0.345651,-0.2224113 0.6779326,-0.497628 1.103158,-0.91370376 1.765127,-1.15438665 3.174132,-1.15407023 1.540397,3.4576e-4 2.465578,0.33813503 3.442022,1.25670383 0.686849,0.6461386 1.091407,1.2439551 1.394448,2.0605823 0.207286,0.5585906 0.227594,0.6940126 0.258346,1.7227712 0.03822,1.2785832 -0.04206,1.795944 -0.427756,2.7565205 -0.320831,0.7990396 -0.910621,1.85037 -1.418565,2.5286651 -0.854121,1.140569 -2.465826,2.739494 -3.688591,3.659342 -1.306978,0.983199 -3.0741268,2.078451 -3.3476661,2.074831 -0.075947,-10e-4 -0.5270685,-0.205208 -1.0024922,-0.453785 z"
     id="path873"
     inkscape:connector-curvature="0" />
  <path
     style="fill:#ff453f;fill-opacity:0.94117647;stroke-width:0.0720339"
     d="M 7.9627119,15.582517 C 4.6981551,13.880431 1.7970095,11.191725 0.72766076,8.8772595 0.58970613,8.5786747 0.38844771,8.0458695 0.28041986,7.6932484 0.09266997,7.0804007 0.08382886,6.982211 0.07999961,5.4673729 0.0760602,3.9089541 0.0793643,3.8730537 0.27888936,3.3063559 0.56019551,2.5073808 0.84910595,2.0313099 1.4127911,1.4378961 1.9585777,0.86332469 2.5915093,0.45580881 3.2805085,0.23535778 3.8733099,0.04568603 5.617355,-0.0350931 6.2550891,0.09758381 6.8447973,0.22026922 7.6856414,0.6657912 8.3588983,1.212289 c 0.3169492,0.2572748 0.6094738,0.469017 0.6500541,0.4705383 0.040581,0.00152 0.345651,-0.2224113 0.6779326,-0.497628 1.103158,-0.91370376 1.765127,-1.15438665 3.174132,-1.15407023 1.639579,3.6809e-4 2.520977,0.34570358 3.564533,1.39659753 0.714312,0.7193346 1.030566,1.1991035 1.31742,1.9985712 0.180149,0.5020798 0.189596,0.598238 0.189895,1.9330242 l 2.89e-4,1.4046611 -0.239322,0.648305 c -0.687236,1.8616708 -1.715734,3.3531669 -3.477775,5.0433629 -1.018724,0.977188 -1.918205,1.69657 -3.119898,2.495213 -1.0977648,0.729574 -1.829689,1.142074 -2.0229315,1.140093 -0.075919,-7.79e-4 -0.5756639,-0.229577 -1.1105156,-0.50844 z"
     id="path875"
     inkscape:connector-curvature="0" />
  <path
     style="fill:#ff453f;fill-opacity:0.94117647;stroke-width:0.0720339"
     d="M 7.9627119,15.582517 C 4.8475484,13.958322 1.9522219,11.336658 0.84890886,9.1411017 0.51235651,8.4713737 0.20218869,7.5252812 0.10800418,6.8811493 0.0560604,6.5259036 0.03489565,5.8207937 0.05421198,5.0890452 0.08270696,4.009587 0.10688093,3.8219821 0.28392172,3.3063559 0.55619067,2.5133806 0.84564429,2.0347482 1.4137917,1.4380345 1.9541734,0.87048248 2.4680544,0.5306621 3.1910747,0.26274878 3.6037287,0.1098409 3.8390453,0.07739912 4.7572034,0.04683543 5.443655,0.02398478 5.9853443,0.04156226 6.2425216,0.09503306 6.8382683,0.21889724 7.5506427,0.58782209 8.3183158,1.1700469 8.6921819,1.4535974 9.0163344,1.6847872 9.0386548,1.6838021 9.0609753,1.6828167 9.3547669,1.45613 9.6915254,1.1800533 10.807676,0.26502614 11.45379,0.03081305 12.861017,0.03112907 c 1.635669,3.6737e-4 2.51492,0.34414721 3.57194,1.39659753 0.695919,0.6929114 1.044021,1.2291775 1.336354,2.0587141 0.149301,0.4236623 0.165246,0.5984669 0.167549,1.8368644 0.0023,1.2425383 -0.01285,1.415104 -0.164537,1.8728813 -0.239862,0.7238766 -0.807255,1.8872687 -1.256272,2.5758789 -0.803821,1.2327367 -2.320268,2.8335857 -3.803626,4.0153297 -1.244948,0.991809 -3.3223895,2.30681 -3.6391701,2.303562 -0.075947,-7.79e-4 -0.5756913,-0.229577 -1.110543,-0.50844 z"
     id="path877"
     inkscape:connector-curvature="0" />
  <path
     style="fill:#ff453f;fill-opacity:0.94117647;stroke-width:0.0720339"
     d="M 8.2148305,15.722306 C 4.9567657,14.068281 1.9919871,11.411576 0.83027031,9.1050847 0.19483913,7.8434895 0.00458297,6.8446134 0.0576263,5.0485782 0.08981203,3.9587765 0.11641219,3.7475684 0.27985519,3.2840576 0.56345323,2.4797972 0.8737906,1.9932079 1.5105297,1.3544381 1.9706868,0.89281349 2.2196496,0.70901756 2.7042373,0.47318739 3.4288724,0.12053544 3.9211076,0.03011009 5.1202471,0.02935772 6.4813556,0.02850372 7.1083329,0.25284052 8.3268814,1.1767133 8.8227541,1.5526709 9.0202919,1.6643136 9.1070856,1.6176619 9.1710063,1.5833046 9.4664195,1.3560321 9.7635593,1.112612 10.390772,0.59879248 11.148023,0.20316596 11.700298,0.10076029 c 0.567446,-0.10521854 1.912287,-0.08557417 2.493346,0.0364208 0.854934,0.17949556 1.492435,0.54689617 2.239313,1.29054551 0.695798,0.69279 1.043777,1.2288083 1.336502,2.0587141 0.150223,0.4258985 0.165307,0.5951858 0.166871,1.8728813 0.0016,1.2869633 -0.01223,1.4438937 -0.164709,1.8728814 -0.261761,0.7364148 -0.832692,1.8913372 -1.25557,2.5398619 -0.778509,1.1939197 -2.33869,2.8510667 -3.739337,3.9717407 -1.233046,0.986575 -3.3814301,2.351033 -3.6944542,2.346381 -0.0809,-0.0012 -0.4712429,-0.166749 -0.8674293,-0.367881 z"
     id="path879"
     inkscape:connector-curvature="0" />
  <path
     style="fill:#ff453f;fill-opacity:0.94117647;stroke-width:0.0720339"
     d="M 8.2148305,15.725802 C 4.9391571,14.064505 1.9814537,11.404246 0.81380408,9.0690678 0.18316699,7.8078587 0.00425412,6.8566797 0.05756655,5.0485782 0.08762594,4.0291081 0.12203741,3.7279484 0.25252303,3.3423729 0.67057901,2.107048 1.6128592,1.004319 2.7042373,0.47318739 3.4288724,0.12053544 3.9211076,0.03011009 5.1202471,0.02935772 6.4641336,0.02851452 7.0663354,0.23939068 8.2844794,1.1373937 8.6397354,1.3992848 8.9800956,1.6123146 9.0408353,1.6107934 9.101575,1.6092721 9.4105932,1.3974186 9.7275424,1.1400078 10.392693,0.59980479 11.144306,0.20385515 11.700298,0.10076029 c 0.567446,-0.10521854 1.912287,-0.08557417 2.493346,0.0364208 0.854934,0.17949556 1.492435,0.54689617 2.239313,1.29054551 0.69631,0.6933003 1.0448,1.230356 1.33588,2.0587141 0.148599,0.4228823 0.164822,0.600747 0.16755,1.8368644 0.0025,1.1187447 -0.02075,1.4475596 -0.127149,1.8008474 -0.206787,0.6866019 -1.083989,2.3869283 -1.615645,3.1316905 -0.565662,0.792397 -2.498867,2.77149 -3.40461,3.485423 -1.291373,1.017896 -3.3949453,2.351802 -3.7067232,2.350486 -0.0809,-3.41e-4 -0.4712429,-0.165019 -0.8674293,-0.36595 z"
     id="path881"
     inkscape:connector-curvature="0" />
  <path
     style="fill:#ff453f;fill-opacity:0.94117647;stroke-width:0.0720339"
     d="M 8.2087119,15.725931 C 6.1650621,14.677405 4.4223839,13.407821 2.9122196,11.867305 1.8770604,10.81134 1.2941281,10.022837 0.7902598,8.9970339 0.15550396,7.7047631 0.08335556,7.3424808 0.08015673,5.4313559 0.07762312,3.9176657 0.088432,3.7796611 0.24377149,3.3423729 0.52637912,2.5468185 0.89203167,1.9724593 1.5093442,1.3544381 1.9696512,0.89360277 2.2204782,0.70861431 2.7042373,0.47318739 3.4288724,0.12053544 3.9211076,0.03011009 5.1202471,0.02935772 6.4638093,0.02851473 6.9942453,0.2124272 8.259377,1.1177549 8.6404457,1.3904474 8.9970135,1.6123146 9.0517499,1.6107934 9.106487,1.609272 9.4105932,1.398801 9.7275424,1.1430797 10.830757,0.25298308 11.456029,0.02809418 12.822126,0.03006433 c 1.679797,0.0024226 2.54645,0.33788242 3.610831,1.39766227 0.680541,0.677599 1.043184,1.2271571 1.33951,2.0299249 0.141768,0.3840568 0.15715,0.5671593 0.159757,1.9016705 0.0028,1.4482983 -0.001,1.487084 -0.200608,2.0169492 -0.311018,0.8257318 -1.003864,2.1207903 -1.541501,2.8813558 -0.592627,0.838356 -2.584321,2.860208 -3.5452,3.598881 -1.352974,1.040096 -3.2616003,2.235865 -3.5687737,2.235865 -0.084265,0 -0.4746083,-0.164899 -0.8674294,-0.366442 z"
     id="path883"
     inkscape:connector-curvature="0" />
  <path
     style="fill:#ff453f;fill-opacity:0.94117647;stroke-width:0.0720339"
     d="M 8.1705923,15.708317 C 6.1253801,14.658404 4.4279586,13.415204 2.8766402,11.830999 1.8628896,10.795757 1.2819357,10.007033 0.79196203,9.0007631 0.14694095,7.6760698 0.07654238,7.3287821 0.07570927,5.4673729 0.07492107,3.7062653 0.0943489,3.5914632 0.55612786,2.6285043 0.97024615,1.7649335 1.8396685,0.8920039 2.7042373,0.47172956 3.4727537,0.09814711 4.0685423,0.00269937 5.365866,0.04532589 6.6919901,0.0888987 6.9365757,0.18622246 8.5667139,1.3189846 c 0.2331543,0.1620161 0.4468443,0.2945747 0.4748655,0.2945747 0.028021,0 0.3541871,-0.2295978 0.7248123,-0.5102173 1.1810313,-0.89421976 1.6964093,-1.07523805 3.0557343,-1.07327767 1.706608,0.0024612 2.557468,0.33685585 3.642383,1.43148607 0.490546,0.4949382 0.760077,0.8359926 0.94558,1.1965004 0.49684,0.9655637 0.529661,1.1362826 0.526238,2.7372882 -0.003,1.4032229 -0.0084,1.4547236 -0.207217,1.9809322 -0.480647,1.2720394 -1.274537,2.6244918 -2.142276,3.6495308 -0.675745,0.798241 -2.153071,2.215888 -2.962078,2.842419 -1.311277,1.015513 -3.240793,2.224152 -3.5507174,2.224152 -0.085421,0 -0.4919721,-0.172825 -0.9034463,-0.384056 z"
     id="path885"
     inkscape:connector-curvature="0" />
  <path
     style="fill:#ff453f;fill-opacity:0.94117647;stroke-width:0.0720339"
     d="M 8.6243274,15.948142 C 7.6397839,15.501333 5.8270472,14.370072 4.7214466,13.5125 3.8191881,12.812652 2.3331944,11.331093 1.7228578,10.522859 1.1155665,9.718658 0.48454144,8.4866183 0.24037081,7.6283898 0.09235395,7.1081295 0.07634961,6.8980888 0.07570927,5.4673729 0.07492107,3.7062653 0.0943489,3.5914632 0.55612786,2.6285043 0.79117931,2.1383459 0.96551604,1.9037415 1.4692959,1.3996568 2.5273047,0.34100806 3.3338745,0.0323471 5.0482132,0.03006433 c 1.424039,-0.0018962 1.9571662,0.17850356 3.265983,1.10514467 0.3716006,0.2630926 0.6978075,0.4783503 0.7249045,0.4783503 0.027097,0 0.349386,-0.2275425 0.7161978,-0.50565 1.1874245,-0.90027524 1.7026815,-1.07909574 3.1093305,-1.07909574 1.667707,0 2.494803,0.33049636 3.608114,1.44175354 0.597483,0.5963803 0.740325,0.7878584 1.023866,1.3724815 0.4225,0.8711391 0.507536,1.4022083 0.460584,2.8764429 -0.04079,1.2806418 -0.131998,1.6110425 -0.815379,2.953624 -0.714951,1.4046055 -1.433757,2.3374305 -2.890467,3.7510805 -1.084883,1.052815 -1.812495,1.637834 -3.140781,2.525273 -1.1152852,0.745132 -1.8307597,1.143996 -2.0472828,1.141322 -0.070463,-8.72e-4 -0.2679927,-0.06506 -0.4389558,-0.142649 z"
     id="path887"
     inkscape:connector-curvature="0" />
</svg>
