<?xml version="1.0" encoding="UTF-8" standalone="no"?>
<svg
   xmlns:dc="http://purl.org/dc/elements/1.1/"
   xmlns:cc="http://creativecommons.org/ns#"
   xmlns:rdf="http://www.w3.org/1999/02/22-rdf-syntax-ns#"
   xmlns:svg="http://www.w3.org/2000/svg"
   xmlns="http://www.w3.org/2000/svg"
   xmlns:sodipodi="http://sodipodi.sourceforge.net/DTD/sodipodi-0.dtd"
   xmlns:inkscape="http://www.inkscape.org/namespaces/inkscape"
   width="182"
   height="22"
   viewBox="0 0 182 22"
   fill="none"
   version="1.1"
   id="svg17"
   sodipodi:docname="logo.svg"
   inkscape:version="0.92.5 (2060ec1f9f, 2020-04-08)">
  <metadata
     id="metadata21">
    <rdf:RDF>
      <cc:Work
         rdf:about="">
        <dc:format>image/svg+xml</dc:format>
        <dc:type
           rdf:resource="http://purl.org/dc/dcmitype/StillImage" />
      </cc:Work>
    </rdf:RDF>
  </metadata>
  <sodipodi:namedview
     pagecolor="#ffffff"
     bordercolor="#666666"
     borderopacity="1"
     objecttolerance="10"
     gridtolerance="10"
     guidetolerance="10"
     inkscape:pageopacity="0"
     inkscape:pageshadow="2"
     inkscape:window-width="1486"
     inkscape:window-height="629"
     id="namedview19"
     showgrid="false"
     inkscape:zoom="2.6208791"
     inkscape:cx="91"
     inkscape:cy="11"
     inkscape:window-x="62"
     inkscape:window-y="206"
     inkscape:window-maximized="0"
     inkscape:current-layer="g10" />
  <g
     clip-path="url(#clip0_148_547)"
     id="g10">
    <path
       d="M13.7476 18.7827H8.7807L4.4347 12.087V18.7827H0V3.39136H4.346V9.9131L8.33723 3.39136H13.2154L8.24854 10.9566L13.7476 18.7827ZM23.77 18.7827L22.883 16.0001H18.1823L17.2953 18.7827H12.6832L18.0049 3.39136H23.0604L28.3821 18.7827H23.77ZM20.577 8.17397L19.2466 12.6087H21.9961L20.577 8.17397ZM41.6862 15.1305C41.3314 16.0001 40.8879 16.6957 40.3558 17.2174C39.7349 17.8261 39.0253 18.2609 38.1384 18.5218C37.2515 18.8696 36.3645 18.9566 35.3002 18.9566C34.2359 18.9566 33.2602 18.7827 32.462 18.5218C31.575 18.174 30.8655 17.7392 30.3333 17.2174C29.7125 16.6087 29.269 15.9131 29.0029 15.1305C28.6481 14.2609 28.5595 13.3914 28.5595 12.3479V3.39136H32.8168V12.2609C32.8168 13.0435 33.0828 13.6522 33.5263 14.174C33.9698 14.6087 34.5906 14.8696 35.3002 14.8696C36.0097 14.8696 36.6306 14.6087 37.0741 14.174C37.5175 13.7392 37.7836 13.1305 37.7836 12.2609V3.39136H42.1296V12.2609C42.1296 13.3044 41.9522 14.2609 41.6862 15.1305ZM48.4269 7.3044V9.82614H54.1033V13.7392H48.5156V18.7827H44.1696V3.39136H55.5224V7.3044H48.4269ZM69.8908 18.7827V11.4783L66.4318 18.7827H64.6579L61.1988 11.4783V18.7827H56.8528V3.39136H61.1101L65.6335 12.6957L70.1569 3.39136H74.4142V18.7827H69.8908ZM85.9444 18.7827L85.0575 16.0001H80.3567L79.4698 18.7827H74.8577L80.1793 3.39136H85.1462L90.4678 18.7827H85.9444ZM82.7515 8.17397L81.4211 12.6087H84.1706L82.7515 8.17397ZM101.288 18.7827L95.5234 10.8696V18.7827H91.1774V3.39136H95.1686L100.934 11.3044V3.39136H105.28V18.7827H101.288V18.7827ZM125.679 18.7827V11.4783L122.22 18.7827H120.446L116.987 11.4783V18.7827H112.641V3.39136H116.899L121.422 12.6957L125.945 3.39136H130.203V18.7827H125.679ZM145.281 15.1305C144.926 16.0001 144.482 16.6957 143.95 17.2174C143.329 17.8261 142.62 18.2609 141.822 18.5218C140.935 18.8696 140.048 18.9566 138.983 18.9566C137.919 18.9566 136.943 18.7827 136.145 18.5218C135.258 18.174 134.549 17.7392 134.017 17.2174C133.396 16.6087 132.952 15.9131 132.686 15.1305C132.331 14.2609 132.243 13.3914 132.243 12.3479V3.39136H136.589V12.2609C136.589 13.0435 136.855 13.6522 137.298 14.174C137.742 14.6087 138.363 14.8696 139.072 14.8696C139.782 14.8696 140.403 14.6087 140.846 14.174C141.289 13.7392 141.556 13.1305 141.556 12.2609V3.39136H145.902V12.2609C145.724 13.3044 145.547 14.2609 145.281 15.1305ZM154.239 7.47832C153.884 7.21745 153.529 7.04353 153.086 7.04353C152.731 7.04353 152.376 7.13049 152.199 7.39136C151.933 7.56527 151.844 7.82614 151.844 8.08701C151.844 8.43484 152.021 8.60875 152.376 8.78266C152.731 8.95658 153.174 9.13049 153.707 9.3044C154.239 9.47832 154.86 9.65223 155.481 9.82614C156.101 10.0001 156.722 10.3479 157.254 10.6957C157.787 11.0435 158.23 11.5653 158.585 12.087C158.94 12.6957 159.117 13.3914 159.117 14.2609C159.117 14.8696 158.94 15.4783 158.673 16.087C158.407 16.6957 157.964 17.1305 157.432 17.5653C156.9 18.0001 156.279 18.3479 155.481 18.6087C154.682 18.8696 153.884 19.0435 152.908 19.0435C151.933 19.0435 151.046 18.8696 150.336 18.6087C149.538 18.3479 148.917 18 148.385 17.4783C147.853 16.9566 147.409 16.4348 147.143 15.8261C146.877 15.2174 146.7 14.5218 146.7 13.7392L150.957 13.3914C150.957 13.9131 151.135 14.2609 151.489 14.6087C151.844 14.9566 152.199 15.1305 152.731 15.1305C153.263 15.1305 153.707 15.0435 153.973 14.7827C154.239 14.5218 154.327 14.2609 154.327 14.087C154.327 13.7392 154.15 13.5653 153.795 13.3914C153.441 13.2174 152.997 13.0435 152.465 12.8696C151.933 12.6957 151.312 12.5218 150.691 12.2609C150.07 12.0001 149.449 11.7392 148.917 11.3914C148.385 11.0435 147.942 10.5218 147.587 10.0001C147.232 9.39136 147.055 8.69571 147.055 7.82614C147.055 7.21745 147.143 6.60875 147.409 6.08701C147.675 5.56527 148.03 5.04354 148.562 4.60875C149.095 4.17397 149.627 3.9131 150.336 3.65223C151.046 3.39136 151.844 3.30441 152.731 3.30441C153.618 3.30441 154.505 3.47832 155.303 3.73919C156.101 4.00006 156.722 4.34788 157.254 4.86962C157.787 5.3044 158.23 5.9131 158.496 6.5218C158.762 7.13049 158.94 7.82614 158.94 8.52179L154.682 8.86962C154.682 8.17397 154.505 7.73919 154.239 7.47832ZM160.625 18.7827V3.39136H164.971V18.7827H160.625V18.7827ZM176.856 8.26093C176.59 8.00006 176.324 7.82614 175.969 7.56527C175.614 7.39136 175.082 7.21745 174.55 7.21745C174.018 7.21745 173.574 7.3044 173.131 7.47832C172.687 7.65223 172.332 7.9131 171.978 8.26093C171.623 8.60875 171.357 8.95658 171.179 9.47832C171.002 9.9131 170.913 10.4348 170.913 11.0435C170.913 11.5653 171.002 12.087 171.179 12.6087C171.357 13.0435 171.623 13.4783 171.978 13.8261C172.332 14.174 172.687 14.4348 173.131 14.6087C173.574 14.7827 174.018 14.8696 174.55 14.8696C175.082 14.8696 175.614 14.7827 175.969 14.5218C176.324 14.3479 176.678 14.087 176.856 13.8261C177.122 13.5653 177.388 13.2174 177.477 12.8696L182 13.2174C181.823 13.9131 181.557 14.6087 181.113 15.3044C180.67 16.0001 180.137 16.6087 179.428 17.1305C178.807 17.6522 178.009 18.087 177.211 18.4348C176.412 18.7827 175.437 18.9566 174.55 18.9566C173.397 18.9566 172.332 18.7827 171.445 18.3479C170.47 17.9131 169.672 17.3914 168.873 16.6957C168.164 16.0001 167.543 15.1305 167.188 14.174C166.745 13.2174 166.567 12.174 166.567 11.0435C166.567 9.9131 166.745 8.86962 167.188 7.9131C167.632 6.95658 168.164 6.08701 168.873 5.39136C169.583 4.69571 170.47 4.08701 171.445 3.73919C172.421 3.30441 173.485 3.13049 174.55 3.13049C175.525 3.13049 176.412 3.30441 177.211 3.65223C178.009 4.00006 178.807 4.43484 179.428 4.95658C180.049 5.47832 180.67 6.08701 181.113 6.78267C181.557 7.47832 181.823 8.17397 182 8.86962L177.477 9.21745C177.299 8.86962 177.122 8.52179 176.856 8.26093Z"
       fill="#35353A"
       id="path2"
       style="fill:#ffffff" />
    <path
       d="M115.125 21.9131C115.302 21.8261 115.391 21.7391 115.48 21.5652C115.568 21.3913 115.568 21.2174 115.568 21.0435C115.568 20.9565 115.568 20.9565 115.568 20.8696C115.568 20.7826 115.568 20.7826 115.568 20.6957V20.6087C115.568 20.6087 115.568 20.6087 115.568 20.5218C115.568 20.3478 115.568 20.1739 115.568 20.087C115.568 19.9131 115.568 19.8261 115.568 19.6522V19.0435C115.568 18.7826 115.657 18.6087 115.834 18.4348C115.923 18.3478 115.923 18.3478 116.012 18.2609C116.1 18.1739 116.1 18.087 116.189 18.087C116.278 18 116.367 17.9131 116.455 17.7391C116.544 17.6522 116.544 17.4783 116.544 17.3913C116.544 17.2174 116.633 17.1305 116.633 16.9565C116.633 16.7826 116.633 16.6957 116.544 16.5218C116.455 16.2609 116.455 16.087 116.455 15.9131C116.455 15.7391 116.544 15.6522 116.544 15.4783C116.544 15.3044 116.544 15.2174 116.544 15.0435C116.544 14.6957 116.544 14.3478 116.633 14L116.721 13.3913C116.721 13.2174 116.721 13.0435 116.81 12.8696C116.81 12.6957 116.81 12.5218 116.899 12.4348C116.987 11.9131 117.076 11.3913 117.076 10.8696C117.076 10.7826 117.076 10.6957 117.076 10.6087C117.076 10.5218 117.076 10.4348 117.165 10.3478C117.165 10.1739 117.165 10 117.253 9.91306C117.253 9.73915 117.254 9.56524 117.342 9.47828L117.431 8.52176C117.431 8.34785 117.52 8.08698 117.52 7.91307C117.52 7.73915 117.52 7.47828 117.608 7.30437V7.21741L117.697 7.13046C117.697 7.13046 117.786 7.13046 117.786 7.21741C117.874 7.39133 117.963 7.6522 118.14 7.73915C118.229 7.82611 118.318 7.91307 118.318 8.08698C118.407 8.26089 118.495 8.52176 118.584 8.78263C118.673 9.0435 118.761 9.21741 118.85 9.47828C118.85 9.65219 118.939 9.82611 119.027 10C119.116 10.1739 119.116 10.3478 119.205 10.5218C119.293 10.6957 119.293 10.8696 119.382 11.0435C119.471 11.2174 119.471 11.3913 119.56 11.5652L119.648 11.8261C119.737 12.087 119.826 12.3478 119.914 12.6087C120.003 12.8696 120.092 13.1305 120.18 13.3913L120.535 14.4348C120.624 14.6087 120.713 14.7826 120.801 14.9565C120.89 15.1305 120.979 15.3044 121.067 15.5652C121.067 15.5652 121.067 15.5652 121.067 15.6522L121.6 16.4348C121.777 16.6957 121.954 16.8696 122.309 17.0435C122.486 17.1305 122.753 17.1305 122.93 17.0435C123.019 17.0435 123.107 16.9565 123.196 16.9565C123.285 16.9565 123.373 16.8696 123.462 16.8696C123.639 16.7826 123.817 16.6087 123.994 16.4348C123.994 16.4348 124.083 16.3478 124.083 16.2609C124.083 16.1739 124.083 16.1739 124.172 16.1739L124.26 16C124.349 15.9131 124.349 15.8261 124.438 15.6522C124.438 15.5652 124.526 15.5652 124.526 15.4783C124.526 15.3913 124.615 15.3913 124.615 15.3044C124.704 15.2174 124.792 15.0435 124.704 14.8696V14.6957C124.704 14.5218 124.792 14.3478 124.792 14.1739C124.792 14 124.881 13.8261 124.881 13.6522C124.881 13.3913 124.97 13.2174 125.059 12.9565C125.147 12.6957 125.147 12.5218 125.236 12.2609C125.236 12.087 125.325 11.9131 125.325 11.8261C125.325 11.6522 125.413 11.5652 125.413 11.3913C125.413 11.2174 125.502 11.0435 125.502 10.9565C125.502 10.7826 125.591 10.6087 125.591 10.5218C125.679 10.2609 125.768 10 125.768 9.6522C125.857 9.39133 125.857 9.13046 125.946 8.86959L126.034 8.60872C126.034 8.60872 126.034 8.60872 126.123 8.60872C126.123 8.60872 126.212 8.69567 126.212 8.78263C126.212 8.86959 126.3 8.86959 126.3 8.95654L126.389 9.21741C126.478 9.47828 126.655 9.73915 126.744 10.087C126.832 10.3478 126.921 10.6957 127.01 10.9565C127.099 11.2174 127.099 11.4783 127.187 11.7392C127.276 12 127.276 12.2609 127.365 12.5218L127.631 14.4348C127.631 14.6087 127.719 14.8696 127.719 15.1305C127.719 15.3913 127.808 15.5652 127.808 15.8261L127.897 16.4348C127.897 16.6087 127.897 16.6957 127.985 16.7826C127.985 16.8696 127.985 17.0435 128.074 17.1305L128.34 18.8696C128.34 18.9565 128.34 19.0435 128.429 19.2174C128.429 19.3044 128.429 19.3913 128.518 19.5652L128.606 20.087C128.606 20.1739 128.606 20.2609 128.695 20.3478C128.695 20.4348 128.784 20.5218 128.784 20.6087C128.961 21.0435 129.316 21.3913 129.759 21.6522C129.937 21.8261 130.203 21.7391 130.38 21.6522C130.469 21.5652 130.558 21.4783 130.646 21.3913C130.735 21.3044 130.824 21.2174 130.824 21.1304C130.912 20.9565 131.001 20.8696 131.001 20.6957C131.09 20.5218 131.09 20.4348 131.09 20.2609L131.178 20C131.178 19.8261 131.178 19.7391 131.178 19.5652L131.001 18.4348V18.3478V18.2609C131.001 17.9131 130.912 17.4783 130.824 17.1305C130.824 17.1305 130.824 17.0435 130.824 16.9565L130.735 16.2609C130.735 16.1739 130.646 16.087 130.646 16C130.646 15.8261 130.558 15.5652 130.558 15.3913C130.558 15.2174 130.469 14.9565 130.469 14.7826C130.38 14.5218 130.38 14.1739 130.292 13.9131C130.292 13.6522 130.203 13.3044 130.203 13.0435C130.203 12.8696 130.114 12.6087 130.114 12.3478C130.114 12.087 130.025 11.9131 130.025 11.6522C130.025 11.4783 129.937 11.3044 129.937 11.1305C129.937 10.9565 129.848 10.7826 129.759 10.6087C129.759 10.6087 129.759 10.5218 129.759 10.4348C129.671 10.2609 129.671 10 129.582 9.82611C129.493 9.6522 129.493 9.39133 129.405 9.21741C129.316 9.0435 129.316 8.78263 129.227 8.60872C129.138 8.4348 129.05 8.17393 128.961 8.00002V7.91307C128.872 7.56524 128.784 7.30437 128.606 7.0435C128.429 6.78263 128.34 6.43481 128.163 6.17394C128.163 6.08698 128.074 6.00002 127.985 5.91307C127.897 5.82611 127.897 5.73915 127.808 5.6522C127.719 5.56524 127.631 5.39133 127.542 5.30437C127.453 5.21741 127.365 5.0435 127.276 4.95655C127.187 4.78263 127.099 4.69568 126.921 4.52176C126.832 4.34785 126.655 4.26089 126.478 4.08698C126.389 4.00002 126.3 3.91307 126.123 3.91307C125.946 3.82611 125.679 3.82611 125.502 3.91307C125.059 4.00002 124.704 4.26089 124.526 4.69568C124.438 4.86959 124.349 5.0435 124.349 5.21742V5.30437C124.349 5.30437 124.349 5.39133 124.26 5.39133C124.172 5.73915 124.172 6.00002 124.083 6.34785C123.994 6.69568 123.906 6.95654 123.817 7.30437C123.817 7.47828 123.728 7.6522 123.728 7.82611C123.639 8.00002 123.639 8.17394 123.551 8.34785C123.462 8.60872 123.373 8.95654 123.285 9.21741C123.196 9.47828 123.107 9.82611 123.019 10.087C122.93 10.2609 122.93 10.5218 122.841 10.7826C122.753 11.0435 122.753 11.2174 122.664 11.4783C122.664 11.5652 122.575 11.6522 122.575 11.6522L122.486 11.7392C122.486 11.7392 122.398 11.7392 122.398 11.6522C122.309 11.4783 122.309 11.3044 122.22 11.1305C122.132 10.9565 122.043 10.7826 122.043 10.5218C121.954 10.2609 121.866 10 121.777 9.73915C121.688 9.47828 121.6 9.21741 121.511 8.95654C121.422 8.78263 121.333 8.60872 121.333 8.34785C121.245 8.17394 121.245 8.00002 121.156 7.73915C121.156 7.73915 121.067 7.6522 121.067 7.47828C120.979 7.39133 120.979 7.30437 121.067 7.21741C121.156 7.13046 121.156 7.13046 121.156 7.0435C121.156 6.95654 121.067 6.95654 121.067 6.95654C120.979 6.95654 120.89 6.86959 120.89 6.78263C120.89 6.86959 120.89 6.78263 120.801 6.52176C120.713 6.34785 120.713 6.17394 120.713 6.17394C120.713 6.17394 120.713 6.08698 120.624 6.08698V6.00002C120.713 5.91307 120.713 5.91307 120.624 5.82611C120.624 5.73915 120.624 5.6522 120.535 5.56524C120.446 5.47828 120.358 5.39133 120.358 5.39133C120.269 5.30437 120.269 5.13046 120.18 5.0435C120.092 4.95655 120.092 4.78263 120.003 4.69568C119.914 4.43481 119.737 4.26089 119.648 4.00002C119.56 3.73916 119.382 3.47829 119.293 3.21742C119.027 2.78263 118.761 2.34785 118.495 1.91307C118.407 1.82611 118.229 1.6522 118.14 1.39133L117.874 1.0435C117.697 0.869592 117.52 0.869592 117.342 0.782635C117.254 0.782635 117.254 0.782635 117.165 0.695679C117.076 0.695679 116.987 0.695679 116.987 0.695679C116.899 0.695679 116.899 0.695679 116.81 0.782635C116.367 0.869592 116.012 1.13046 115.834 1.47829C115.657 1.6522 115.568 1.91307 115.568 2.08698C115.48 2.2609 115.48 2.52176 115.568 2.78263C115.568 2.78263 115.568 2.78263 115.568 2.86959C115.657 3.30437 115.746 3.82611 115.657 4.34785C115.657 4.43481 115.657 4.60872 115.568 4.69568C115.568 4.78263 115.568 4.95655 115.568 5.0435C115.568 5.21742 115.568 5.47828 115.568 5.73915C115.568 6.00002 115.568 6.17394 115.48 6.43481C115.48 6.60872 115.48 6.86959 115.391 7.13046C115.391 7.39133 115.302 7.56524 115.302 7.82611L115.214 8.34785C115.214 8.60872 115.125 8.78263 115.125 9.0435C115.125 9.30437 115.036 9.47828 114.947 9.73915C114.947 9.82611 114.947 9.91306 114.947 10C114.947 10.1739 114.947 10.3478 114.859 10.5218C114.859 10.6957 114.859 10.8696 114.77 11.0435C114.77 11.1305 114.77 11.2174 114.681 11.3913C114.681 11.4783 114.681 11.5652 114.681 11.7392C114.681 11.8261 114.681 11.9131 114.681 12C114.681 12.1739 114.681 12.2609 114.593 12.4348C114.593 12.6087 114.593 12.6957 114.504 12.8696C114.504 13.0435 114.504 13.3044 114.415 13.4783C114.415 13.6522 114.327 13.9131 114.327 14.087C114.327 14.2609 114.238 14.5218 114.238 14.7826C114.238 15.0435 114.149 15.2174 114.149 15.4783C114.149 15.6522 114.061 15.8261 114.061 16C113.972 16.1739 113.972 16.3478 113.883 16.6087C113.883 16.6957 113.794 16.7826 113.794 16.8696C113.794 17.1305 113.794 17.3044 113.794 17.5652C113.794 17.8261 113.794 18.087 113.794 18.2609C113.794 18.4348 113.883 18.6087 113.972 18.8696L114.327 19.5652C114.327 19.6522 114.415 19.6522 114.415 19.7391C114.415 19.8261 114.415 19.8261 114.504 19.9131C114.593 20.087 114.681 20.2609 114.681 20.4348C114.681 20.6087 114.77 20.7826 114.77 20.9565C114.77 21.1305 114.77 21.3044 114.859 21.4783C114.859 21.6522 114.859 21.8261 114.947 22C114.947 22.087 115.036 22.2609 115.036 22.3478C115.036 22.4348 115.125 22.6087 115.214 22.6957C115.302 22.8696 115.48 22.9565 115.657 22.9565C115.036 22 115.036 22 115.125 21.9131Z"
       fill="#FE00A5"
       id="path4" />
    <path
       fill-rule="evenodd"
       clip-rule="evenodd"
       d="M56.5867 3.56526C56.5867 3.65222 56.5868 3.65222 56.4981 3.73917C56.4981 3.82613 56.4981 3.82613 56.4094 3.91308L56.3207 4.087C56.3207 4.17395 56.232 4.26091 56.1433 4.26091L56.0546 4.34787L55.9659 4.43482C55.8772 4.60874 55.8772 4.60874 55.8772 4.69569C55.8772 4.78265 55.7885 4.78265 55.7885 4.78265C55.6998 4.78265 55.6111 4.86961 55.6111 4.86961C55.5224 4.86961 55.5224 4.95656 55.4337 5.04352C55.345 5.04352 55.2563 5.04352 55.2563 5.13048C55.1676 5.13048 55.079 5.13048 54.9903 5.13048C54.9016 5.13048 54.7242 5.13048 54.5468 5.21743C54.4581 5.30439 54.3694 5.30439 54.2807 5.30439C54.192 5.30439 54.1033 5.39134 53.9259 5.39134C53.7485 5.4783 53.4825 5.4783 53.3051 5.39134C53.2164 5.39134 53.1277 5.30439 53.1277 5.30439H52.9503C52.8616 5.30439 52.7729 5.30439 52.7729 5.21743C52.6842 5.21743 52.5955 5.21743 52.5068 5.21743C52.4181 5.21743 52.3294 5.21743 52.3294 5.21743C52.2407 5.21743 52.2407 5.21743 52.1521 5.21743C52.0634 5.21743 51.9747 5.21743 51.7973 5.21743C51.7086 5.21743 51.7086 5.21743 51.6199 5.21743C51.5312 5.21743 51.5312 5.21743 51.4425 5.21743C51.3538 5.21743 51.2651 5.21743 51.1764 5.21743C51.0877 5.21743 50.999 5.21743 50.9103 5.21743C50.8216 5.21743 50.8216 5.21743 50.7329 5.21743C50.5556 5.21743 50.5556 5.21743 50.4669 5.21743C50.3782 5.21743 50.2895 5.30439 50.2008 5.21743C50.1121 5.21743 50.0234 5.21743 49.9347 5.21743C49.846 5.21743 49.7573 5.21743 49.6686 5.21743C49.6686 5.21743 49.5799 5.21743 49.4912 5.21743C49.4025 5.21743 49.4025 5.21743 49.3138 5.21743C49.1365 5.13048 48.8704 5.21743 48.693 5.39134H48.6043C48.5156 5.4783 48.4269 5.4783 48.4269 5.39134C48.2495 5.30439 48.0721 5.30439 47.9834 5.4783C47.8947 5.56526 47.806 5.65221 47.7174 5.56526C47.6287 5.56526 47.54 5.56526 47.54 5.4783C47.4513 5.4783 47.3626 5.4783 47.3626 5.56526L47.2739 5.65221C47.1852 5.65221 47.1852 5.65221 47.1852 5.65221C47.0965 5.65221 47.0078 5.65221 47.0078 5.65221C46.8304 5.73917 46.5643 5.82613 46.3869 5.82613C46.2982 5.82613 46.2983 5.82613 46.2983 5.91308C46.2983 6.17395 46.2983 6.43482 46.2983 6.78265C46.2983 6.86961 46.2983 6.95656 46.2983 7.04352C46.2983 7.13047 46.2983 7.21743 46.2983 7.30439C46.2983 7.39134 46.2983 7.4783 46.2983 7.4783C46.2983 7.56526 46.2983 7.65221 46.2983 7.65221V7.73917C46.2983 7.91308 46.2982 8.087 46.3869 8.26091C46.3869 8.34786 46.3869 8.43482 46.3869 8.52178C46.4756 8.52178 46.5643 8.52178 46.653 8.52178C46.7417 8.52178 46.9191 8.52178 47.0078 8.52178H47.1852C47.3626 8.52178 47.54 8.52178 47.7174 8.52178C47.8947 8.52178 48.0721 8.52178 48.2495 8.52178C48.3382 8.52178 48.4269 8.52178 48.4269 8.52178C48.5156 8.52178 48.6043 8.52178 48.6043 8.52178H48.7817C49.0478 8.60873 49.3138 8.60873 49.5799 8.60873C49.846 8.60873 50.1121 8.60873 50.3782 8.60873C50.4669 8.60873 50.5556 8.60873 50.6443 8.60873C50.7329 8.60873 50.9103 8.52178 50.999 8.60873C51.0877 8.60873 51.2651 8.60873 51.3538 8.60873H51.4425H51.5312C51.6199 8.60873 51.7086 8.69569 51.7086 8.78265C51.7086 8.8696 51.7973 8.8696 51.7973 8.95656C51.7973 9.04352 51.886 9.04352 51.9747 9.04352C52.0634 9.04352 52.1521 9.04352 52.2407 9.04352C52.3294 9.13047 52.4181 9.13047 52.5068 9.21743C52.6842 9.30439 52.7729 9.4783 52.7729 9.73917C52.7729 9.91308 52.7729 10.087 52.7729 10.2609C52.7729 10.4348 52.6842 10.6087 52.5955 10.7826V10.8696C52.5955 10.8696 52.5955 10.9566 52.5068 10.9566C52.4181 11.0435 52.3294 11.1305 52.1521 11.1305H52.0634H51.9747V11.3044C51.9747 11.3044 51.886 11.3044 51.7973 11.3044L51.7086 11.3913C51.6199 11.4783 51.4425 11.4783 51.2651 11.5653C51.1764 11.5653 51.0877 11.5653 50.999 11.5653C50.9103 11.5653 50.8216 11.5653 50.6443 11.5653C50.5556 11.5653 50.4669 11.5653 50.2895 11.5653H50.1121C50.0234 11.5653 49.9347 11.6522 49.846 11.6522L49.4025 11.8261C49.3138 11.8261 49.2252 11.8261 49.2252 11.9131C49.1365 11.9131 49.0478 12 49.0478 12C48.7817 12.087 48.5156 12.1739 48.3382 12.1739C48.0721 12.1739 47.8947 12.2609 47.7174 12.3479H47.6287H47.54C47.4513 12.3479 47.3626 12.4348 47.3626 12.4348C47.2739 12.5218 47.0965 12.6087 47.0078 12.6087C47.0078 12.7826 47.0078 12.8696 47.0965 13.0435C47.0965 13.3044 47.0965 13.5653 47.0965 13.8261C47.0965 13.9131 47.0965 14.087 47.0965 14.1739C47.0965 14.2609 47.0965 14.4348 47.0965 14.5218C47.0965 14.7826 47.0965 15.1305 47.0965 15.3913C47.0965 15.6522 47.0965 16 47.0965 16.2609C47.0965 16.3479 47.0965 16.5218 47.0965 16.6087C47.0965 16.6957 47.0965 16.8696 47.0965 17.0435C47.0965 17.1305 47.0965 17.3044 47.0965 17.3913C47.0965 17.4783 47.0965 17.6522 47.0965 17.8261C47.0965 17.9131 47.0965 18 47.0965 18.087C47.0965 18.1739 47.0965 18.2609 47.0965 18.3479C47.0965 18.4348 47.0965 18.4348 47.0965 18.5218C47.0965 18.6087 47.0965 18.6087 47.0965 18.6957C47.0965 18.7826 47.0965 18.8696 47.0965 18.8696C47.0965 18.9566 47.0965 19.0435 47.0965 19.0435C47.0965 19.2174 47.0965 19.3044 46.9191 19.4783C46.9191 19.5653 46.9191 19.5653 46.8304 19.6522C46.8304 19.7392 46.7417 19.7392 46.7417 19.7392C46.7417 19.8261 46.653 19.9131 46.5643 20C46.4756 20.087 46.3869 20.087 46.2983 20.1739H46.2096H46.1209C46.0322 20.1739 45.9435 20.2609 45.8548 20.2609C45.8548 20.3479 45.7661 20.3479 45.6774 20.4348C45.5887 20.4348 45.5 20.5218 45.5 20.5218C45.4113 20.5218 45.3226 20.5218 45.2339 20.5218C45.1452 20.5218 45.0565 20.5218 44.9678 20.5218C44.9678 20.5218 44.8791 20.5218 44.7905 20.5218C44.7018 20.5218 44.6131 20.4348 44.6131 20.4348C44.5244 20.4348 44.4357 20.4348 44.4357 20.4348C44.347 20.4348 44.347 20.4348 44.2583 20.3479C44.2583 20.2609 44.1696 20.2609 44.0809 20.1739C43.9922 20.087 43.9035 20 43.9035 19.9131L43.8148 19.6522C43.7261 19.5653 43.7261 19.4783 43.8148 19.3044C43.8148 19.2174 43.8148 19.2174 43.8148 19.1305C43.8148 19.0435 43.8148 19.0435 43.8148 18.9566C43.8148 18.9566 43.8148 18.8696 43.9035 18.8696C43.9035 18.7826 43.9035 18.7826 43.9922 18.7826C43.9922 18.6957 43.9922 18.6957 43.9922 18.6087C43.9922 18.5218 43.9922 18.5218 43.9922 18.4348C43.9922 18.2609 43.9922 18 43.9922 17.8261C43.9922 17.6522 43.9922 17.3913 43.9922 17.2174C43.9922 17.0435 43.9922 16.9566 43.9922 16.7826C43.9922 16.6087 43.9922 16.5218 43.9922 16.3479C43.9922 16.2609 43.9922 16.1739 43.9922 16C43.9922 15.9131 43.9922 15.8261 43.9922 15.7392C43.9922 15.6522 43.9922 15.5653 43.9922 15.4783C43.9922 15.3913 43.9922 15.3044 43.9922 15.2174C43.9922 15.1305 43.9922 14.9566 43.9922 14.8696C43.9922 14.7826 43.9922 14.6087 43.9035 14.5218C43.9035 14.3479 43.8148 14.2609 43.8148 14.1739C43.8148 14 43.8148 13.8261 43.8148 13.5653C43.8148 13.3913 43.8148 13.2174 43.8148 13.0435V12.9566V12.8696C43.8148 12.6957 43.8148 12.6087 43.8148 12.4348V12.3479C43.8148 12.2609 43.7261 12.1739 43.6374 12.087C43.6374 12 43.5487 12 43.5487 11.9131C43.46 11.7392 43.3714 11.4783 43.3714 11.3044C43.2827 11.1305 43.2827 10.8696 43.194 10.6957C43.1053 10.3479 43.1053 10.087 43.194 9.82613C43.2827 9.56526 43.3713 9.39134 43.5487 9.21743C43.5487 9.13047 43.5487 9.04352 43.5487 8.95656C43.5487 8.78265 43.5487 8.52178 43.5487 8.34787C43.5487 8.17395 43.5487 7.91308 43.46 7.73917C43.46 7.56526 43.46 7.4783 43.46 7.30439C43.46 7.13047 43.46 7.04352 43.46 6.8696C43.46 6.78265 43.46 6.69569 43.46 6.60874C43.46 6.52178 43.46 6.43482 43.3714 6.34787V6.17395C43.3714 6.00004 43.3713 5.73917 43.2827 5.56526C43.2827 5.4783 43.2827 5.39134 43.2827 5.30439C43.2827 5.21743 43.2827 5.13048 43.2827 5.04352C43.3713 4.86961 43.3714 4.78265 43.3714 4.60874C43.3714 4.43482 43.3714 4.26091 43.3714 4.087C43.3714 3.91308 43.3714 3.82613 43.3714 3.65222C43.3714 3.4783 43.3714 3.39135 43.3714 3.21743C43.3714 3.04352 43.3714 2.78265 43.3714 2.60874C43.46 2.43482 43.46 2.17396 43.5487 2.00004C43.5487 1.91309 43.6374 1.91309 43.6374 1.82613C43.7261 1.82613 43.8148 1.73917 43.8148 1.73917C44.0809 1.82613 44.1696 1.73917 44.1696 1.73917L44.2583 1.65222C44.347 1.65222 44.4357 1.56526 44.5244 1.56526C44.6131 1.56526 44.7018 1.56526 44.7905 1.4783C44.9678 1.39135 45.1452 1.39135 45.2339 1.4783C45.4113 1.56526 45.5 1.56526 45.6774 1.65222C45.8548 1.73917 45.9435 1.82613 46.0322 2.00004C46.0322 2.00004 46.0322 2.087 46.1209 2.087C46.1209 2.17396 46.1209 2.17395 46.2096 2.26091C46.2096 2.34787 46.2096 2.43482 46.2096 2.52178C46.2096 2.60874 46.2096 2.69569 46.2096 2.78265C46.2096 2.86961 46.2982 2.95656 46.3869 2.95656H46.4756C46.7417 2.95656 47.0965 2.95656 47.3626 2.95656C47.6287 2.95656 47.8947 2.95656 48.2495 2.95656H48.3382C48.5156 2.95656 48.6043 2.86961 48.693 2.86961C48.7817 2.86961 48.8704 2.86961 48.9591 2.86961C48.9591 2.86961 49.0478 2.86961 49.1365 2.86961C49.2252 2.86961 49.2251 2.86961 49.3138 2.86961C49.4025 2.86961 49.4912 2.86961 49.5799 2.86961C49.6686 2.86961 49.846 2.86961 49.9347 2.86961C50.0234 2.86961 50.0234 2.86961 50.1121 2.86961C50.1121 2.86961 50.2008 2.86961 50.2895 2.86961C50.3782 2.86961 50.3782 2.86961 50.4669 2.86961C50.6443 2.86961 50.7329 2.78265 50.9103 2.78265C51.0877 2.78265 51.1764 2.78265 51.3538 2.69569C51.5312 2.69569 51.6199 2.60874 51.7973 2.60874C51.9747 2.60874 52.0634 2.60874 52.2407 2.52178C52.2407 2.52178 52.3294 2.52178 52.4181 2.52178C52.6842 2.52178 52.9503 2.52178 53.3051 2.34787C53.3938 2.34787 53.3938 2.34787 53.4825 2.34787C53.5712 2.34787 53.5712 2.34787 53.6598 2.34787C53.7485 2.34787 53.8372 2.34787 53.9259 2.34787C54.1033 2.34787 54.192 2.34787 54.3694 2.26091C54.5468 2.26091 54.6355 2.17396 54.8129 2.17396C54.9016 2.17396 54.9903 2.087 55.079 2.087C55.1676 2.087 55.2563 2.087 55.2563 2.087L55.5224 2.00004C55.6111 1.91309 55.7885 2.00004 55.8772 2.087L56.3207 2.34787C56.3207 2.34787 56.4094 2.34787 56.4094 2.43482L56.4981 2.52178C56.5868 2.60874 56.5868 2.69569 56.6754 2.78265C56.7641 2.86961 56.7641 2.95656 56.7641 3.04352C56.7641 3.13048 56.7641 3.21743 56.7641 3.21743C56.5867 3.4783 56.5867 3.4783 56.5867 3.56526Z"
       fill="#05A5FF"
       id="path6" />
    <path
       d="M1.5078 20.5217C1.59649 20.5217 1.59649 20.5217 1.68519 20.5217C1.86257 20.5217 2.03996 20.4347 2.21735 20.3478C2.30604 20.3478 2.39474 20.2608 2.48343 20.1739C2.57212 20.0869 2.66082 20.0869 2.74951 20.0869C2.74951 20.0869 2.83821 20.0869 2.83821 20C2.83821 19.913 2.9269 19.913 2.9269 19.826C2.9269 19.7391 3.01559 19.6521 3.10429 19.6521C3.10429 19.5652 3.19298 19.5652 3.19298 19.4782C3.19298 19.3913 3.19298 19.3913 3.28168 19.3043V18.8695C3.28168 18.6956 3.28168 18.6087 3.28168 18.4347C3.28168 18.2608 3.28168 18.1739 3.28168 18V17.5652C3.28168 17.3913 3.37037 17.1304 3.37037 16.9565C3.37037 16.7826 3.37037 16.5217 3.37037 16.3478V13.2174C3.37037 13.1304 3.37037 13.1304 3.37037 13.0434C3.37037 13.0434 3.37037 12.9565 3.45906 12.9565H3.54776C3.54776 13.0434 3.63645 13.0434 3.72515 13.1304C3.81384 13.2174 3.90253 13.2174 3.99123 13.3043C4.25731 13.5652 4.52339 13.7391 4.78947 14C5.05556 14.2608 5.23294 14.4347 5.49903 14.6956C5.8538 15.0434 6.11988 15.3043 6.47466 15.5652C6.82943 15.826 7.09552 16.1739 7.45029 16.4347C7.62768 16.6087 7.80507 16.6956 7.98246 16.8695C8.15984 16.9565 8.33723 17.1304 8.51462 17.3043C8.60331 17.3913 8.69201 17.4782 8.8694 17.4782C8.95809 17.5652 9.04678 17.6521 9.13548 17.7391C9.13548 17.7391 9.22417 17.826 9.31287 17.826C9.31287 17.826 9.40156 17.913 9.49025 17.913C9.57895 17.913 9.57895 18 9.57895 18L10.0224 18.2608C10.1111 18.2608 10.1111 18.3478 10.1998 18.3478C10.2885 18.3478 10.2885 18.4347 10.3772 18.4347C10.3772 18.4347 10.4659 18.5217 10.5546 18.6087C10.6433 18.6956 10.6433 18.6956 10.732 18.7826C10.8207 18.7826 10.8207 18.7826 10.9094 18.8695C10.9981 18.8695 11.0867 18.8695 11.1754 18.9565H11.2641C11.3528 18.9565 11.4415 18.9565 11.5302 18.9565C11.6189 18.9565 11.7076 18.9565 11.7963 18.9565C11.885 18.9565 11.9737 18.9565 12.1511 18.8695C12.2398 18.8695 12.3285 18.8695 12.5058 18.7826C12.5945 18.7826 12.5945 18.7826 12.6832 18.6956C12.6832 18.6087 12.7719 18.6087 12.7719 18.5217C12.8606 18.4347 12.9493 18.3478 13.038 18.2608C13.1267 18.1739 13.1267 18.0869 13.1267 18L13.2154 17.7391C13.2154 17.6521 13.3041 17.5652 13.3041 17.3913C13.3041 17.2174 13.3041 16.9565 13.2154 16.7826C13.2154 16.7826 13.2154 16.6956 13.1267 16.6087C13.1267 16.5217 13.1267 16.5217 13.038 16.5217C12.8606 16.2608 12.6832 16 12.4172 15.913C12.2398 15.826 12.1511 15.826 11.9737 15.7391C11.885 15.6521 11.7076 15.5652 11.5302 15.4782C11.2641 15.3043 10.9981 15.1304 10.732 14.9565C10.4659 14.7826 10.1998 14.6087 9.93372 14.4347L9.49025 14.0869C9.31287 13.913 9.04678 13.7391 8.8694 13.5652C8.69201 13.3913 8.42593 13.2174 8.24854 13.0434C8.24854 13.0434 8.15984 12.9565 8.15984 12.8695C8.15984 12.7826 8.07115 12.7826 8.07115 12.6956L7.80507 12.3478C7.62768 12.1739 7.45029 12 7.3616 11.8261C7.18421 11.6521 7.00682 11.4782 6.82943 11.3913L5.9425 10.6087C5.41033 10.6956 5.32164 10.6087 5.32164 10.6087C5.32164 10.6087 5.32164 10.6087 5.32164 10.5217C5.32164 10.5217 5.32164 10.5217 5.32164 10.4347C5.32164 10.4347 5.32164 10.4347 5.32164 10.3478C5.32164 10.3478 5.32164 10.3478 5.32164 10.2608C5.49903 10.0869 5.58772 9.99996 5.76511 9.82605C5.9425 9.82605 6.11988 9.65214 6.20858 9.56518C6.20858 9.56518 6.29727 9.47822 6.38596 9.47822C6.47466 9.47822 6.47466 9.39127 6.47466 9.39127C6.56335 9.30431 6.65205 9.1304 6.74074 9.04344C6.82943 8.86953 6.91813 8.78257 7.09552 8.69562C7.09552 8.69562 7.18421 8.60866 7.3616 8.43475C7.62768 8.17388 7.80507 7.99996 8.07115 7.73909C8.33723 7.47823 8.51462 7.21736 8.7807 6.95649C8.95809 6.78257 9.13548 6.60866 9.31287 6.34779C9.49025 6.17388 9.66764 5.99997 9.84503 5.82605L10.0224 5.65214C10.1998 5.39127 10.3772 5.21736 10.6433 4.95649C10.8207 4.69562 11.0867 4.5217 11.2641 4.26084C11.3528 4.17388 11.4415 4.08692 11.5302 3.99997C11.6189 3.91301 11.6189 3.82605 11.7076 3.7391C11.7076 3.56518 11.7963 3.39127 11.885 3.30431C11.9737 3.21736 11.9737 3.21736 11.885 3.1304C11.7963 3.04344 11.7963 3.04344 11.7963 2.95649C11.7963 2.86953 11.7963 2.78258 11.7076 2.78258C11.6189 2.69562 11.5302 2.69562 11.6189 2.60866C11.6189 2.52171 11.6189 2.43475 11.6189 2.43475C11.6189 2.43475 11.5302 2.34779 11.4415 2.34779H11.1754C11.1754 2.34779 11.0867 2.34779 11.0867 2.26084C11.0867 2.26084 10.9981 2.26084 10.9981 2.17388C10.9094 2.08692 10.732 1.99997 10.5546 1.99997C10.4659 1.99997 10.3772 1.99997 10.2885 1.91301C10.1111 1.82605 9.93372 1.82605 9.66764 1.99997C9.66764 1.99997 9.66764 1.99997 9.57895 1.99997C9.49025 1.99997 9.40156 2.08692 9.40156 2.08692C9.31287 2.17388 9.31287 2.17388 9.22417 2.26084C9.13548 2.52171 8.95809 2.60866 8.8694 2.78258C8.7807 2.86953 8.60331 3.04344 8.51462 3.1304C8.42593 3.30431 8.33723 3.39127 8.24854 3.47823C8.15984 3.65214 8.07115 3.7391 7.98246 3.82605C7.80507 4.08692 7.62768 4.26084 7.3616 4.5217C7.18421 4.69562 7.00682 4.95649 6.82943 5.1304C6.65205 5.30431 6.56335 5.47823 6.38596 5.56518C6.20858 5.7391 6.03119 5.91301 5.8538 5.99997C5.49903 6.26083 5.14425 6.5217 4.87817 6.86953L3.45906 8.26083C3.37037 8.34779 3.28168 8.43475 3.28168 8.43475H3.19298C3.19298 8.43475 3.10429 8.43475 3.10429 8.34779C3.10429 8.17388 3.10429 7.99996 3.10429 7.91301C3.10429 7.7391 3.10429 7.65214 3.10429 7.47823C3.10429 7.21736 3.10429 6.95649 3.01559 6.60866C3.01559 6.43475 3.01559 6.34779 2.9269 6.17388C2.9269 5.99997 2.9269 5.91301 2.9269 5.7391C2.9269 5.65214 2.9269 5.56518 2.9269 5.56518C2.9269 5.39127 2.9269 5.21736 2.9269 5.04344C2.9269 4.86953 2.9269 4.69562 2.9269 4.60866C2.9269 4.52171 2.9269 4.43475 2.9269 4.34779C2.9269 4.26084 2.9269 4.17388 2.9269 4.08692C2.9269 3.91301 2.9269 3.82605 2.83821 3.65214C2.83821 3.56518 2.83821 3.39127 2.83821 3.21736C2.83821 3.1304 2.83821 3.1304 2.83821 3.04344C2.83821 2.95649 2.83821 2.95649 2.83821 2.86953C2.83821 2.69562 2.83821 2.43475 2.83821 2.26084C2.83821 2.08692 2.83821 1.99997 2.74951 1.91301C2.74951 1.91301 2.74951 1.82605 2.66082 1.82605C2.66082 1.7391 2.66082 1.7391 2.57212 1.65214C2.57212 1.56518 2.48343 1.47823 2.39474 1.47823C2.39474 1.47823 2.30604 1.47823 2.30604 1.39127C2.30604 1.30431 2.21735 1.30431 2.12866 1.30431C2.03996 1.30431 1.95127 1.30431 1.86257 1.21736C1.77388 1.21736 1.68519 1.1304 1.59649 1.21736C1.5078 1.21736 1.4191 1.21736 1.33041 1.21736C1.33041 1.21736 1.33041 1.21736 1.24172 1.30431L1.15302 1.39127C1.15302 1.47823 1.06433 1.47823 0.975634 1.47823C0.88694 1.47823 0.88694 1.47823 0.798246 1.47823C0.620858 1.65214 0.532164 1.65214 0.44347 1.7391C0.354776 1.7391 0.266082 1.82605 0.266082 1.99997C0.266082 2.08692 0.266082 2.08692 0.177388 2.17388C0.177388 2.26084 0.177388 2.26084 0.088694 2.34779C0 2.43475 0 2.52171 0 2.60866C0 2.78258 0 2.95649 0 3.1304C0 3.30431 0 3.47823 0.088694 3.65214C0.088694 3.82605 0.177388 3.99997 0.177388 4.26084C0.177388 4.43475 0.177388 4.60866 0.266082 4.86953V5.04344C0.266082 5.1304 0.266082 5.21736 0.354776 5.30431C0.354776 5.39127 0.354776 5.47823 0.354776 5.56518C0.354776 5.65214 0.354776 5.7391 0.354776 5.82605C0.354776 5.91301 0.354776 5.99997 0.354776 6.08692C0.354776 6.17388 0.354776 6.17388 0.354776 6.26083C0.354776 6.34779 0.354776 6.34779 0.354776 6.43475C0.354776 6.78257 0.354776 7.04344 0.354776 7.39127C0.354776 7.73909 0.354776 7.99996 0.44347 8.34779C0.44347 8.5217 0.532164 8.78257 0.532164 8.95649C0.532164 9.1304 0.532164 9.39127 0.532164 9.56518C0.532164 9.99996 0.532164 10.4347 0.532164 10.8695C0.532164 11.3043 0.532164 11.7391 0.532164 12.2608C0.532164 12.8695 0.532164 13.4782 0.44347 14.0869C0.44347 14.6956 0.354776 15.3043 0.354776 15.913V16C0.354776 16.2608 0.266082 16.4347 0.266082 16.6956C0.266082 16.9565 0.266082 17.1304 0.266082 17.3913C0.266082 17.4782 0.266082 17.5652 0.266082 17.7391C0.266082 17.826 0.266082 17.913 0.177388 18.0869C0.177388 18.2608 0.177388 18.5217 0.088694 18.6956C0.088694 18.8695 0.088694 19.1304 0 19.3043C0 19.4782 0 19.5652 0.088694 19.7391C0.177388 19.826 0.177388 20 0.266082 20.0869C0.266082 20.0869 0.354776 20.1739 0.44347 20.2608C0.532164 20.3478 0.532164 20.3478 0.620858 20.4347C0.709552 20.5217 0.709552 20.5217 0.798246 20.6087C0.88694 20.6087 0.975634 20.6956 0.975634 20.7826C1.06433 20.8695 1.15302 20.8695 1.33041 20.8695C1.4191 20.5217 1.5078 20.5217 1.5078 20.5217Z"
       id="path8"
       fill="#FFB606" />
  </g>
  <defs
     id="defs15">
    <clipPath
       id="clip0_148_547">
      <rect
         width="182"
         height="22"
         fill="white"
         id="rect12" />
    </clipPath>
  </defs>
</svg>
