<?xml version="1.0" encoding="UTF-8" standalone="no"?>
<svg
   xmlns:dc="http://purl.org/dc/elements/1.1/"
   xmlns:cc="http://creativecommons.org/ns#"
   xmlns:rdf="http://www.w3.org/1999/02/22-rdf-syntax-ns#"
   xmlns:svg="http://www.w3.org/2000/svg"
   xmlns="http://www.w3.org/2000/svg"
   xmlns:sodipodi="http://sodipodi.sourceforge.net/DTD/sodipodi-0.dtd"
   xmlns:inkscape="http://www.inkscape.org/namespaces/inkscape"
   width="22.5"
   height="22.5"
   viewBox="0 0 22.5 22.5"
   version="1.1"
   id="svg4"
   sodipodi:docname="profileIconDefault.svg"
   style="fill:none"
   inkscape:version="0.92.5 (2060ec1f9f, 2020-04-08)">
  <metadata
     id="metadata10">
    <rdf:RDF>
      <cc:Work
         rdf:about="">
        <dc:format>image/svg+xml</dc:format>
        <dc:type
           rdf:resource="http://purl.org/dc/dcmitype/StillImage" />
        <dc:title></dc:title>
      </cc:Work>
    </rdf:RDF>
  </metadata>
  <defs
     id="defs8" />
  <sodipodi:namedview
     pagecolor="#ffffff"
     bordercolor="#666666"
     borderopacity="1"
     objecttolerance="10"
     gridtolerance="10"
     guidetolerance="10"
     inkscape:pageopacity="0"
     inkscape:pageshadow="2"
     inkscape:window-width="1236"
     inkscape:window-height="769"
     id="namedview6"
     showgrid="false"
     inkscape:zoom="10.26087"
     inkscape:cx="11.25"
     inkscape:cy="11.25"
     inkscape:window-x="240"
     inkscape:window-y="386"
     inkscape:window-maximized="0"
     inkscape:current-layer="svg4" />
  <path
     d="m 4.33125,16.9875 c 0.95625,-0.7312 2.025,-1.308 3.20625,-1.7303 1.18125,-0.4215 2.4188,-0.6322 3.7125,-0.6322 1.2937,0 2.5313,0.2107 3.7125,0.6322 1.1813,0.4223 2.25,0.9991 3.2062,1.7303 0.6563,-0.7687 1.1674,-1.6406 1.5334,-2.6156 C 20.0674,13.3969 20.25,12.3563 20.25,11.25 20.25,8.75625 19.3736,6.63262 17.6209,4.87912 15.8674,3.12637 13.7438,2.25 11.25,2.25 8.75625,2.25 6.633,3.12637 4.88025,4.87912 3.12675,6.63262 2.25,8.75625 2.25,11.25 c 0,1.1063 0.183,2.1469 0.549,3.1219 0.36525,0.975 0.876,1.8469 1.53225,2.6156 z M 11.25,12.375 c -1.1063,0 -2.03925,-0.3795 -2.799,-1.1385 C 7.692,10.4767 7.3125,9.54375 7.3125,8.4375 7.3125,7.33125 7.692,6.39825 8.451,5.6385 9.21075,4.8795 10.1437,4.5 11.25,4.5 c 1.1063,0 2.0392,0.3795 2.799,1.1385 0.759,0.75975 1.1385,1.69275 1.1385,2.799 0,1.10625 -0.3795,2.0392 -1.1385,2.799 -0.7598,0.759 -1.6927,1.1385 -2.799,1.1385 z m 0,10.125 C 9.69375,22.5 8.23125,22.2045 6.8625,21.6135 5.49375,21.0233 4.30313,20.2219 3.29063,19.2094 2.27813,18.1969 1.47675,17.0062 0.8865,15.6375 0.2955,14.2687 0,12.8062 0,11.25 0,9.69375 0.2955,8.23125 0.8865,6.8625 1.47675,5.49375 2.27813,4.30313 3.29063,3.29063 4.30313,2.27813 5.49375,1.47637 6.8625,0.88537 8.23125,0.295125 9.69375,0 11.25,0 c 1.5562,0 3.0187,0.295125 4.3875,0.88537 1.3687,0.591 2.5594,1.39276 3.5719,2.40526 1.0125,1.0125 1.8139,2.20312 2.4041,3.57187 0.591,1.36875 0.8865,2.83125 0.8865,4.3875 0,1.5562 -0.2955,3.0187 -0.8865,4.3875 -0.5902,1.3687 -1.3916,2.5594 -2.4041,3.5719 -1.0125,1.0125 -2.2032,1.8139 -3.5719,2.4041 C 14.2687,22.2045 12.8062,22.5 11.25,22.5 Z"
     id="path2"
     inkscape:connector-curvature="0"
     style="fill:#7f7d85;fill-opacity:1"
     inkscape:export-xdpi="96"
     inkscape:export-ydpi="96" />
</svg>
