<svg width="17" height="14" viewBox="0 0 17 14" fill="none" xmlns="http://www.w3.org/2000/svg">
<path d="M10.8182 13V11.75C10.8182 11.087 10.5596 10.4511 10.0993 9.98223C9.63894 9.51339 9.01462 9.25 8.36364 9.25H3.45455C2.80356 9.25 2.17924 9.51339 1.71892 9.98223C1.2586 10.4511 1 11.087 1 11.75V13" stroke="#7F7D85" stroke-width="2" stroke-linecap="round" stroke-linejoin="round"/>
<path d="M5.90913 6C7.26474 6 8.36368 4.88071 8.36368 3.5C8.36368 2.11929 7.26474 1 5.90913 1C4.55353 1 3.45459 2.11929 3.45459 3.5C3.45459 4.88071 4.55353 6 5.90913 6Z" stroke="#7F7D85" stroke-width="2" stroke-linecap="round" stroke-linejoin="round"/>
<path d="M16 13V11.75C15.9996 11.1961 15.8185 10.658 15.4853 10.2202C15.1522 9.78246 14.6856 9.46978 14.1591 9.3313" stroke="#7F7D85" stroke-width="2" stroke-linecap="round" stroke-linejoin="round"/>
<path d="M11.7046 1.0813C12.2326 1.21899 12.7005 1.53174 13.0347 1.97024C13.3689 2.40875 13.5503 2.94807 13.5503 3.50317C13.5503 4.05828 13.3689 4.5976 13.0347 5.0361C12.7005 5.47461 12.2326 5.78736 11.7046 5.92505" stroke="#7F7D85" stroke-width="2" stroke-linecap="round" stroke-linejoin="round"/>
</svg>
