<?xml version="1.0" encoding="UTF-8" standalone="no"?>
<svg
   xmlns:dc="http://purl.org/dc/elements/1.1/"
   xmlns:cc="http://creativecommons.org/ns#"
   xmlns:rdf="http://www.w3.org/1999/02/22-rdf-syntax-ns#"
   xmlns:svg="http://www.w3.org/2000/svg"
   xmlns="http://www.w3.org/2000/svg"
   xmlns:sodipodi="http://sodipodi.sourceforge.net/DTD/sodipodi-0.dtd"
   xmlns:inkscape="http://www.inkscape.org/namespaces/inkscape"
   stroke-miterlimit="2"
   viewBox="0 0 19.995001 19.995001"
   version="1.1"
   id="svg4"
   sodipodi:docname="successIcon.svg"
   width="19.995001"
   height="19.995001"
   style="clip-rule:evenodd;fill-rule:evenodd;stroke-linejoin:round;stroke-miterlimit:2"
   inkscape:version="0.92.5 (2060ec1f9f, 2020-04-08)">
  <metadata
     id="metadata10">
    <rdf:RDF>
      <cc:Work
         rdf:about="">
        <dc:format>image/svg+xml</dc:format>
        <dc:type
           rdf:resource="http://purl.org/dc/dcmitype/StillImage" />
      </cc:Work>
    </rdf:RDF>
  </metadata>
  <defs
     id="defs8" />
  <sodipodi:namedview
     pagecolor="#ffffff"
     bordercolor="#666666"
     borderopacity="1"
     objecttolerance="10"
     gridtolerance="10"
     guidetolerance="10"
     inkscape:pageopacity="0"
     inkscape:pageshadow="2"
     inkscape:window-width="779"
     inkscape:window-height="480"
     id="namedview6"
     showgrid="false"
     inkscape:zoom="9.8333333"
     inkscape:cx="10"
     inkscape:cy="10"
     inkscape:window-x="62"
     inkscape:window-y="206"
     inkscape:window-maximized="0"
     inkscape:current-layer="svg4" />
  <path
     d="m 9.998,0 c 5.517,0 9.997,4.48 9.997,9.997 0,5.518 -4.48,9.998 -9.997,9.998 C 4.48,19.995 0,15.515 0,9.997 0,4.48 4.48,0 9.998,0 Z M 4.949,10.386 8.8,13.816 c 0.142,0.128 0.321,0.19 0.499,0.19 0.202,0 0.405,-0.081 0.552,-0.242 L 15.804,7.255 C 15.935,7.112 16,6.932 16,6.753 16,6.343 15.669,6.006 15.252,6.006 c -0.204,0 -0.405,0.082 -0.554,0.243 L 9.245,12.211 5.947,9.273 C 5.803,9.146 5.626,9.083 5.448,9.083 5.033,9.083 4.7,9.418 4.7,9.829 c 0,0.205 0.084,0.409 0.249,0.557 z"
     id="path2"
     inkscape:connector-curvature="0"
     style="fill-rule:nonzero;fill:#00ff00" />
</svg>
